<svg width="233" height="173" viewBox="0 0 233 173" fill="none" xmlns="http://www.w3.org/2000/svg">
<path d="M209.254 159.379H193.886V159.495H209.254V159.379Z" fill="#EBEBEB"/>
<path d="M154.186 160.641H150.154V160.757H154.186V160.641Z" fill="#EBEBEB"/>
<path d="M193.422 155.073H184.518V155.189H193.422V155.073Z" fill="#EBEBEB"/>
<path d="M44.8816 155.853H24.8414V155.969H44.8816V155.853Z" fill="#EBEBEB"/>
<path d="M51.953 155.853H49.0159V155.969H51.953V155.853Z" fill="#EBEBEB"/>
<path d="M104.97 157.811H61.5021V157.927H104.97V157.811Z" fill="#EBEBEB"/>
<path d="M111.118 131.219H21.5192C20.8165 131.219 20.1426 130.94 19.6458 130.443C19.1489 129.946 18.8698 129.272 18.8698 128.57V2.62624C18.8759 1.92759 19.1577 1.25964 19.6539 0.767783C20.1501 0.275923 20.8205 -2.67848e-05 21.5192 1.94998e-09H111.118C111.466 1.94999e-09 111.81 0.0685292 112.131 0.201676C112.453 0.334823 112.745 0.52998 112.991 0.776003C113.237 1.02203 113.432 1.3141 113.565 1.63554C113.699 1.95699 113.767 2.30151 113.767 2.64944V128.57C113.767 128.918 113.699 129.262 113.565 129.584C113.432 129.905 113.237 130.197 112.991 130.443C112.745 130.689 112.453 130.884 112.131 131.018C111.81 131.151 111.466 131.219 111.118 131.219ZM21.5192 0.0928004C20.8477 0.0940269 20.204 0.361336 19.7291 0.836182C19.2543 1.31103 18.987 1.95471 18.9858 2.62624V128.57C18.987 129.241 19.2543 129.885 19.7291 130.36C20.204 130.835 20.8477 131.102 21.5192 131.103H111.118C111.789 131.102 112.433 130.835 112.908 130.36C113.382 129.885 113.65 129.241 113.651 128.57V2.62624C113.65 1.95471 113.382 1.31103 112.908 0.836182C112.433 0.361336 111.789 0.0940269 111.118 0.0928004H21.5192Z" fill="#EBEBEB"/>
<path d="M211.481 131.219H121.882C121.18 131.219 120.506 130.94 120.009 130.443C119.512 129.946 119.233 129.272 119.233 128.57V2.62624C119.239 1.92759 119.521 1.25964 120.017 0.767783C120.513 0.275923 121.184 -2.67848e-05 121.882 1.94998e-09H211.481C212.183 1.94999e-09 212.857 0.279137 213.354 0.776003C213.851 1.27287 214.13 1.94677 214.13 2.64944V128.57C214.13 129.272 213.851 129.946 213.354 130.443C212.857 130.94 212.183 131.219 211.481 131.219ZM121.882 0.0928004C121.211 0.0940269 120.567 0.361336 120.092 0.836182C119.617 1.31103 119.35 1.95471 119.349 2.62624V128.57C119.35 129.241 119.617 129.885 120.092 130.36C120.567 130.835 121.211 131.102 121.882 131.103H211.481C212.152 131.102 212.796 130.835 213.271 130.36C213.746 129.885 214.013 129.241 214.014 128.57V2.62624C214.013 1.95471 213.746 1.31103 213.271 0.836182C212.796 0.361336 212.152 0.0940269 211.481 0.0928004H121.882Z" fill="#EBEBEB"/>
<path d="M232.5 151.914H0.5V152.03H232.5V151.914Z" fill="#EBEBEB"/>
<path d="M55.8691 120.524C55.4794 116.042 50.9043 114.367 45.4802 114.84C40.056 115.313 35.8475 117.759 36.228 122.241L55.8691 120.524Z" fill="#F0F0F0"/>
<path d="M45.3039 112.794C47.8188 112.571 48.6215 110.446 48.4034 107.931C48.1854 105.416 47.0114 103.463 44.5058 103.681C42.0002 103.899 41.1882 106.029 41.4063 108.544C41.6244 111.058 42.789 113.012 45.3039 112.794Z" fill="#F0F0F0"/>
<path d="M158.307 25.056C158.351 25.5535 158.246 26.0528 158.006 26.4909C157.766 26.9289 157.402 27.2859 156.959 27.5168C156.516 27.7477 156.015 27.842 155.518 27.7878C155.022 27.7337 154.553 27.5335 154.17 27.2126C153.788 26.8916 153.509 26.4644 153.369 25.985C153.229 25.5055 153.235 24.9954 153.385 24.5192C153.535 24.0429 153.823 23.6219 154.213 23.3095C154.603 22.997 155.076 22.8071 155.574 22.7639C156.24 22.706 156.902 22.9148 157.414 23.3446C157.927 23.7743 158.248 24.3899 158.307 25.056Z" fill="#F5F5F5"/>
<path d="M172.259 23.8218C172.302 24.3182 172.197 24.8163 171.957 25.253C171.717 25.6897 171.353 26.0454 170.911 26.2752C170.469 26.505 169.968 26.5986 169.473 26.544C168.978 26.4895 168.51 26.2893 168.128 25.9687C167.747 25.6482 167.469 25.2217 167.329 24.7433C167.19 24.2648 167.196 23.7558 167.346 23.2806C167.496 22.8055 167.784 22.3855 168.173 22.0738C168.562 21.7622 169.034 21.5728 169.531 21.5296C170.196 21.473 170.857 21.6824 171.368 22.112C171.88 22.5417 172.2 23.1565 172.259 23.8218Z" fill="#F5F5F5"/>
<path d="M186.216 22.6015C186.26 23.0989 186.155 23.5982 185.916 24.0363C185.676 24.4743 185.311 24.8313 184.869 25.0622C184.426 25.2931 183.924 25.3874 183.428 25.3332C182.931 25.2791 182.462 25.0789 182.08 24.758C181.697 24.437 181.418 24.0098 181.278 23.5304C181.139 23.051 181.144 22.5408 181.294 22.0646C181.445 21.5883 181.733 21.1673 182.122 20.8549C182.512 20.5424 182.985 20.3526 183.483 20.3093C184.149 20.2514 184.811 20.4602 185.324 20.89C185.836 21.3197 186.157 21.9353 186.216 22.6015Z" fill="#F5F5F5"/>
<path d="M159.55 39.2637C159.594 39.7611 159.489 40.2605 159.249 40.6985C159.01 41.1365 158.645 41.4936 158.202 41.7245C157.76 41.9553 157.258 42.0496 156.762 41.9955C156.265 41.9413 155.796 41.7411 155.413 41.4202C155.031 41.0993 154.752 40.6721 154.612 40.1926C154.472 39.7132 154.478 39.2031 154.628 38.7268C154.779 38.2505 155.067 37.8295 155.456 37.5171C155.846 37.2047 156.319 37.0148 156.817 36.9715C157.483 36.9136 158.145 37.1225 158.658 37.5522C159.17 37.982 159.491 38.5975 159.55 39.2637Z" fill="#F5F5F5"/>
<path d="M173.502 38.048C173.545 38.5444 173.44 39.0425 173.2 39.4792C172.96 39.9159 172.596 40.2716 172.154 40.5015C171.712 40.7313 171.212 40.8248 170.716 40.7702C170.221 40.7157 169.753 40.5155 169.372 40.1949C168.99 39.8744 168.712 39.4479 168.573 38.9695C168.434 38.491 168.44 37.982 168.59 37.5068C168.74 37.0317 169.028 36.6117 169.416 36.3C169.805 35.9884 170.278 35.799 170.774 35.7558C171.104 35.7271 171.436 35.7637 171.751 35.8634C172.067 35.9631 172.36 36.1239 172.613 36.3368C172.866 36.5496 173.075 36.8103 173.228 37.1039C173.38 37.3975 173.474 37.7183 173.502 38.048Z" fill="#F5F5F5"/>
<path d="M187.46 36.8231C187.504 37.3206 187.399 37.8199 187.159 38.258C186.919 38.696 186.555 39.053 186.112 39.2839C185.669 39.5148 185.168 39.6091 184.671 39.5549C184.175 39.5008 183.706 39.3006 183.323 38.9796C182.94 38.6587 182.662 38.2315 182.522 37.7521C182.382 37.2726 182.388 36.7625 182.538 36.2862C182.688 35.81 182.976 35.389 183.366 35.0765C183.756 34.7641 184.229 34.5742 184.727 34.531C185.393 34.4731 186.055 34.6819 186.567 35.1117C187.08 35.5414 187.401 36.157 187.46 36.8231Z" fill="#F5F5F5"/>
<path d="M160.793 53.49C160.836 53.9864 160.731 54.4845 160.491 54.9212C160.251 55.3579 159.887 55.7137 159.445 55.9435C159.003 56.1733 158.503 56.2668 158.007 56.2123C157.512 56.1577 157.044 55.9575 156.663 55.637C156.281 55.3164 156.003 54.89 155.864 54.4115C155.725 53.933 155.731 53.424 155.881 52.9489C156.031 52.4737 156.319 52.0538 156.707 51.7421C157.096 51.4304 157.569 51.241 158.065 51.1978C158.395 51.1686 158.727 51.2047 159.043 51.3041C159.359 51.4036 159.652 51.5644 159.905 51.7773C160.159 51.9903 160.368 52.2512 160.52 52.5451C160.673 52.839 160.765 53.1601 160.793 53.49Z" fill="#F5F5F5"/>
<path d="M174.751 52.265C174.795 52.7625 174.69 53.2618 174.45 53.6999C174.21 54.1379 173.846 54.4949 173.403 54.7258C172.96 54.9567 172.459 55.051 171.963 54.9968C171.466 54.9427 170.997 54.7425 170.614 54.4215C170.232 54.1006 169.953 53.6734 169.813 53.194C169.673 52.7145 169.679 52.2044 169.829 51.7281C169.979 51.2519 170.267 50.8309 170.657 50.5184C171.047 50.206 171.52 50.0161 172.018 49.9729C172.684 49.9149 173.346 50.1238 173.858 50.5536C174.371 50.9833 174.692 51.5989 174.751 52.265Z" fill="#F5F5F5"/>
<path d="M188.703 51.0401C188.747 51.5375 188.643 52.0368 188.403 52.4749C188.163 52.9129 187.798 53.2699 187.356 53.5008C186.913 53.7317 186.411 53.826 185.915 53.7718C185.419 53.7177 184.949 53.5175 184.567 53.1966C184.184 52.8756 183.905 52.4484 183.765 51.969C183.626 51.4896 183.631 50.9794 183.781 50.5032C183.932 50.0269 184.22 49.6059 184.609 49.2935C184.999 48.981 185.473 48.7912 185.97 48.7479C186.636 48.69 187.298 48.8988 187.811 49.3286C188.323 49.7583 188.644 50.3739 188.703 51.0401Z" fill="#F5F5F5"/>
<path d="M185.687 51.8659L157.021 54.3715L182.439 23.4877L156.404 25.7659C156.331 25.7729 156.258 25.7653 156.188 25.7435C156.119 25.7218 156.054 25.6863 155.998 25.6391C155.942 25.592 155.897 25.5342 155.864 25.4691C155.83 25.404 155.811 25.333 155.805 25.2602C155.793 25.1144 155.838 24.9694 155.932 24.8571C156.026 24.7449 156.161 24.6746 156.307 24.6616L184.977 22.156L159.555 53.0399L185.599 50.7616C185.746 50.75 185.891 50.7965 186.004 50.8911C186.117 50.9857 186.188 51.1208 186.202 51.2674C186.208 51.3405 186.199 51.4141 186.176 51.4838C186.153 51.5536 186.117 51.6181 186.069 51.6737C186.021 51.7294 185.963 51.775 185.897 51.808C185.832 51.841 185.76 51.8607 185.687 51.8659Z" fill="#E6E6E6"/>
<path d="M186.128 107.003C186.084 106.868 186.001 106.749 185.889 106.661C185.778 106.572 185.643 106.519 185.501 106.507C184.255 106.449 183.075 105.928 182.193 105.045C181.047 103.89 180.374 102.14 180.263 100.062C180.252 99.8741 180.171 99.6976 180.034 99.5683C179.898 99.439 179.718 99.3665 179.53 99.3656C179.428 99.3661 179.328 99.3872 179.235 99.4275C179.142 99.4679 179.058 99.5267 178.988 99.6004C178.918 99.6741 178.864 99.7612 178.829 99.8564C178.793 99.9516 178.778 100.053 178.783 100.154C178.913 102.595 179.739 104.683 181.145 106.089C182.246 107.192 183.706 107.862 185.26 107.977H185.367C185.489 107.987 185.611 107.966 185.723 107.916C185.835 107.867 185.933 107.791 186.008 107.694C186.084 107.598 186.134 107.484 186.155 107.364C186.176 107.243 186.166 107.119 186.128 107.003Z" fill="#F0F0F0"/>
<path d="M184.643 115.907C178.495 115.369 174.059 111.179 172.658 104.637C172.636 104.538 172.633 104.437 172.651 104.338C172.67 104.238 172.707 104.144 172.763 104.06C172.818 103.976 172.89 103.904 172.974 103.848C173.058 103.793 173.153 103.755 173.252 103.737C173.44 103.703 173.633 103.743 173.792 103.849C173.951 103.954 174.063 104.117 174.106 104.303C175.363 110.181 179.307 113.949 184.778 114.427C190.772 114.951 197.208 111.007 198.364 101.069C198.384 100.875 198.479 100.697 198.629 100.572C198.779 100.448 198.972 100.388 199.166 100.405C199.265 100.413 199.36 100.441 199.448 100.487C199.535 100.532 199.612 100.595 199.675 100.671C199.738 100.747 199.785 100.835 199.813 100.93C199.841 101.024 199.85 101.124 199.839 101.222C198.73 110.594 192.568 116.599 184.643 115.907Z" fill="#F0F0F0"/>
<path d="M173.043 98.1174C172.945 98.1094 172.849 98.0816 172.762 98.0359C172.674 97.9902 172.597 97.9274 172.534 97.8513C172.471 97.7751 172.425 97.6872 172.396 97.5926C172.368 97.4981 172.359 97.3989 172.37 97.3008C173.475 87.928 179.636 81.9192 187.557 82.6152C194.517 83.2231 199.18 88.4198 199.909 96.2475C199.916 96.3458 199.904 96.4446 199.873 96.5382C199.842 96.6317 199.793 96.7182 199.728 96.7925C199.663 96.8668 199.584 96.9274 199.496 96.9709C199.407 97.0143 199.311 97.0397 199.213 97.0456C199.019 97.0547 198.829 96.9881 198.684 96.8599C198.538 96.7318 198.449 96.5521 198.433 96.3589C197.76 89.3061 193.598 84.6336 187.432 84.0954C181.46 83.5711 174.996 87.5104 173.846 97.44C173.838 97.5372 173.81 97.6319 173.766 97.7185C173.721 97.8052 173.659 97.8822 173.585 97.9451C173.51 98.008 173.424 98.0556 173.331 98.0852C173.238 98.1148 173.14 98.1257 173.043 98.1174Z" fill="#F0F0F0"/>
<path d="M184.945 111.931C183.842 111.842 182.762 111.573 181.748 111.133C181.653 111.091 181.568 111.031 181.498 110.955C181.428 110.879 181.375 110.789 181.341 110.691C181.308 110.594 181.295 110.49 181.303 110.387C181.312 110.284 181.341 110.184 181.39 110.093C181.477 109.934 181.62 109.812 181.792 109.752C181.963 109.692 182.151 109.698 182.318 109.768C183.286 110.184 184.32 110.423 185.371 110.474C189.914 110.734 194.712 107.513 195.185 99.7368C195.473 94.9437 193.83 91.0739 190.768 89.2226C190.609 89.1266 190.492 88.9749 190.44 88.7972C190.388 88.6195 190.404 88.4286 190.485 88.2621C190.531 88.17 190.595 88.0884 190.674 88.0224C190.753 87.9563 190.845 87.9072 190.944 87.878C191.043 87.8489 191.146 87.8403 191.249 87.8529C191.351 87.8655 191.449 87.899 191.538 87.9512C195.088 90.0949 196.99 94.4472 196.665 99.825C196.201 107.323 191.533 112.316 185.283 111.959L184.945 111.931Z" fill="#F0F0F0"/>
<path d="M178.337 107.305C178.252 107.362 178.155 107.402 178.054 107.421C177.953 107.44 177.848 107.438 177.748 107.415C177.647 107.392 177.553 107.348 177.47 107.287C177.387 107.226 177.317 107.148 177.265 107.059C175.89 104.502 175.286 101.6 175.525 98.7068C175.962 91.5287 180.263 86.6428 186.105 86.5592C186.207 86.5572 186.31 86.5764 186.405 86.6156C186.5 86.6549 186.586 86.7134 186.657 86.7875C186.729 86.8615 186.784 86.9495 186.82 87.046C186.856 87.1425 186.871 87.2453 186.866 87.348C186.854 87.5336 186.773 87.7081 186.639 87.837C186.505 87.9659 186.328 88.0397 186.142 88.044C181.808 88.1276 177.456 91.4034 177.01 98.7949C176.785 101.407 177.323 104.028 178.56 106.34C178.653 106.5 178.682 106.69 178.64 106.871C178.599 107.051 178.491 107.21 178.337 107.314V107.305Z" fill="#F0F0F0"/>
<path d="M188.48 106.72C188.41 106.555 188.402 106.37 188.457 106.199C188.513 106.029 188.628 105.884 188.782 105.792C190.735 104.618 191.932 102.154 191.951 99.18C191.951 96.7996 191.278 94.7859 190.007 93.5099C189.513 93.0207 188.925 92.6375 188.278 92.3837C187.631 92.13 186.938 92.0111 186.244 92.0344C183.956 92.0344 182.1 93.2918 181.075 95.5004C180.996 95.6683 180.856 95.8002 180.684 95.8699C180.512 95.9395 180.32 95.9418 180.147 95.8763C180.05 95.8404 179.962 95.7849 179.887 95.7132C179.813 95.6415 179.755 95.5552 179.715 95.4597C179.676 95.3642 179.657 95.2617 179.66 95.1585C179.662 95.0553 179.686 94.9537 179.729 94.8601C181.001 92.155 183.381 90.5542 186.225 90.5496C187.116 90.5266 188.003 90.6841 188.831 91.0126C189.66 91.3412 190.413 91.8339 191.046 92.4612C192.601 94.0203 193.445 96.4099 193.427 99.1939C193.399 102.697 191.923 105.639 189.52 107.082C189.429 107.132 189.328 107.162 189.225 107.17C189.122 107.179 189.018 107.166 188.92 107.131C188.822 107.097 188.732 107.043 188.656 106.972C188.581 106.901 188.521 106.815 188.48 106.72Z" fill="#F0F0F0"/>
<path d="M183.135 101.24C183.036 101.281 182.929 101.299 182.822 101.294C182.715 101.29 182.611 101.262 182.516 101.213C182.42 101.164 182.337 101.095 182.271 101.011C182.205 100.927 182.158 100.829 182.133 100.725C182.082 100.526 182.045 100.317 182.012 100.103C181.59 97.3194 183.084 94.9113 185.483 94.4797C186.042 94.3583 186.621 94.3693 187.174 94.5119C187.728 94.6545 188.24 94.9248 188.671 95.301C188.751 95.3728 188.815 95.4619 188.856 95.5616C188.898 95.6613 188.917 95.7691 188.911 95.877C188.905 95.9849 188.875 96.09 188.823 96.1847C188.771 96.2794 188.698 96.3612 188.61 96.4239L188.564 96.4564C188.425 96.5531 188.257 96.599 188.088 96.5864C187.919 96.5737 187.759 96.5032 187.636 96.3868C187.376 96.1671 187.068 96.0108 186.737 95.9303C186.406 95.8497 186.061 95.8472 185.729 95.9228C183.901 96.2522 183.205 98.1546 183.465 99.8621C183.492 100.029 183.52 100.192 183.562 100.326C183.607 100.501 183.587 100.686 183.506 100.847C183.425 101.008 183.288 101.135 183.121 101.203L183.135 101.24Z" fill="#F0F0F0"/>
<path d="M185.59 104.098C185.473 104.087 185.361 104.046 185.264 103.979C185.167 103.912 185.089 103.822 185.037 103.716C184.985 103.611 184.961 103.494 184.967 103.376C184.972 103.259 185.008 103.145 185.07 103.045L185.135 102.943C185.202 102.837 185.296 102.751 185.408 102.694C185.52 102.638 185.646 102.613 185.771 102.623C186.004 102.636 186.237 102.622 186.467 102.581C188.063 102.293 188.787 100.809 188.787 99.296C188.782 99.1143 188.843 98.9371 188.959 98.7972C189.076 98.6573 189.238 98.5641 189.418 98.535C189.521 98.5193 189.626 98.5254 189.726 98.553C189.827 98.5805 189.92 98.6289 190.001 98.695C190.081 98.7611 190.147 98.8434 190.194 98.9365C190.24 99.0297 190.267 99.1316 190.271 99.2356C190.313 101.658 188.879 103.658 186.731 104.043C186.355 104.112 185.971 104.131 185.59 104.098Z" fill="#F0F0F0"/>
<path d="M185.919 101.356C185.544 101.325 185.189 101.177 184.903 100.933C184.616 100.689 184.414 100.362 184.323 99.9968C184.297 99.8938 184.295 99.7861 184.319 99.6825C184.343 99.579 184.391 99.4826 184.46 99.4014C184.528 99.3202 184.615 99.2565 184.713 99.2156C184.811 99.1747 184.918 99.1578 185.023 99.1662H185.195C185.325 99.1798 185.448 99.2309 185.55 99.3133C185.651 99.3957 185.726 99.5058 185.766 99.6302C185.782 99.6949 185.818 99.7529 185.869 99.7962C185.919 99.8394 185.982 99.8658 186.049 99.8715C186.406 99.904 186.466 99.4075 186.476 99.2869C186.497 99.1062 186.463 98.9234 186.378 98.7625C186.25 98.6078 186.184 98.411 186.193 98.2104C186.204 98.0629 186.26 97.9224 186.352 97.8067C186.444 97.691 186.569 97.6055 186.71 97.5612C186.851 97.5168 187.002 97.5156 187.144 97.5577C187.286 97.5998 187.412 97.6832 187.506 97.7974C187.868 98.2549 188.035 98.8369 187.97 99.4168C187.849 100.637 186.991 101.449 185.919 101.356Z" fill="#F0F0F0"/>
<path d="M171.962 84.7496C171.865 84.7415 171.77 84.7142 171.684 84.6693C171.597 84.6245 171.521 84.563 171.458 84.4884C171.396 84.4138 171.349 84.3275 171.319 84.2346C171.29 84.1416 171.28 84.0439 171.289 83.9469L171.85 77.5112L178.286 78.0773C178.383 78.0855 178.478 78.1128 178.564 78.1576C178.65 78.2024 178.727 78.2639 178.79 78.3386C178.852 78.4132 178.899 78.4994 178.928 78.5924C178.957 78.6853 178.968 78.7831 178.959 78.88C178.951 78.9772 178.923 79.0719 178.879 79.1585C178.834 79.2452 178.772 79.3222 178.698 79.3851C178.623 79.448 178.537 79.4956 178.444 79.5252C178.351 79.5548 178.253 79.5657 178.156 79.5575L173.201 79.1213L172.769 84.0768C172.76 84.1741 172.733 84.2686 172.687 84.3551C172.642 84.4415 172.58 84.5182 172.505 84.5807C172.43 84.6432 172.343 84.6903 172.25 84.7192C172.157 84.7482 172.059 84.7586 171.962 84.7496Z" fill="#F0F0F0"/>
<path d="M202.553 87.4269C202.456 87.4188 202.362 87.3915 202.275 87.3466C202.189 87.3018 202.112 87.2403 202.05 87.1657C201.987 87.0911 201.94 87.0048 201.911 86.9119C201.882 86.8189 201.872 86.7212 201.881 86.6242L202.312 81.6687L197.357 81.2372C197.259 81.2284 197.165 81.2006 197.078 81.1553C196.992 81.1099 196.915 81.048 196.853 80.973C196.79 80.898 196.743 80.8115 196.714 80.7182C196.685 80.625 196.675 80.527 196.684 80.4298C196.692 80.3328 196.719 80.2383 196.764 80.1519C196.809 80.0655 196.87 79.9888 196.945 79.9262C197.02 79.8637 197.106 79.8165 197.199 79.7875C197.292 79.7585 197.39 79.7481 197.487 79.757L203.922 80.3184L203.361 86.768C203.34 86.9619 203.243 87.1397 203.092 87.2629C202.941 87.3862 202.748 87.4451 202.553 87.4269Z" fill="#F0F0F0"/>
<path d="M200.275 122.032L193.84 121.471C193.742 121.462 193.648 121.434 193.561 121.389C193.475 121.343 193.398 121.281 193.336 121.206C193.273 121.131 193.226 121.045 193.197 120.952C193.168 120.858 193.158 120.76 193.167 120.663C193.175 120.566 193.202 120.472 193.247 120.385C193.292 120.299 193.353 120.222 193.428 120.16C193.503 120.097 193.589 120.05 193.682 120.021C193.775 119.992 193.873 119.981 193.97 119.99L198.925 120.422L199.357 115.471C199.365 115.373 199.392 115.278 199.437 115.191C199.482 115.104 199.544 115.027 199.619 114.964C199.694 114.901 199.781 114.854 199.875 114.824C199.968 114.795 200.066 114.785 200.164 114.794C200.261 114.802 200.355 114.829 200.442 114.874C200.528 114.919 200.605 114.98 200.667 115.055C200.73 115.129 200.777 115.216 200.806 115.309C200.835 115.402 200.846 115.499 200.837 115.596L200.275 122.032Z" fill="#F0F0F0"/>
<path d="M174.639 119.777L168.203 119.211L168.765 112.78C168.784 112.584 168.879 112.403 169.03 112.276C169.181 112.149 169.376 112.087 169.572 112.102C169.67 112.111 169.764 112.139 169.851 112.184C169.937 112.23 170.014 112.292 170.076 112.367C170.139 112.442 170.186 112.528 170.215 112.621C170.244 112.715 170.254 112.813 170.245 112.91L169.814 117.856L174.764 118.292C174.862 118.3 174.956 118.328 175.043 118.372C175.13 118.417 175.207 118.479 175.27 118.553C175.332 118.628 175.38 118.714 175.41 118.807C175.439 118.9 175.45 118.998 175.442 119.095C175.425 119.292 175.332 119.474 175.181 119.602C175.031 119.729 174.836 119.792 174.639 119.777Z" fill="#F0F0F0"/>
<path d="M35.1748 105.852C35.0539 105.861 34.9342 105.823 34.8414 105.745C34.7487 105.667 34.6901 105.555 34.6783 105.435L34.335 101.482L38.2882 101.134C38.4092 101.124 38.5288 101.163 38.6216 101.241C38.7144 101.319 38.7729 101.43 38.7847 101.551C38.7925 101.671 38.7533 101.79 38.6754 101.881C38.5975 101.973 38.4869 102.031 38.3671 102.043L35.3233 102.312L35.5878 105.356C35.5969 105.476 35.5589 105.595 35.4818 105.688C35.4047 105.78 35.2946 105.839 35.1748 105.852Z" fill="#E0E0E0"/>
<path d="M53.9853 104.205C53.8651 104.214 53.7461 104.176 53.6535 104.099C53.5608 104.022 53.5018 103.912 53.4888 103.792L53.2244 100.744L50.1759 101.013C50.055 101.022 49.9353 100.983 49.8425 100.905C49.7497 100.827 49.6912 100.716 49.6794 100.595C49.6703 100.474 49.709 100.355 49.787 100.262C49.8651 100.169 49.9763 100.111 50.097 100.099L54.0503 99.7554L54.3983 103.709C54.4074 103.829 54.3694 103.948 54.2923 104.041C54.2153 104.133 54.1052 104.192 53.9853 104.205Z" fill="#E0E0E0"/>
<path d="M55.934 121.239L51.976 121.587C51.8551 121.596 51.7355 121.557 51.6427 121.479C51.5499 121.401 51.4914 121.29 51.4796 121.169C51.4705 121.048 51.5091 120.929 51.5872 120.836C51.6652 120.743 51.7765 120.684 51.8972 120.673L54.941 120.408L54.6765 117.364C54.6674 117.244 54.7054 117.125 54.7825 117.032C54.8595 116.94 54.9697 116.881 55.0895 116.868C55.2097 116.859 55.3287 116.897 55.4214 116.974C55.514 117.051 55.5731 117.161 55.586 117.281L55.934 121.239Z" fill="#E0E0E0"/>
<path d="M40.1674 122.617L36.228 122.96L35.88 119.002C35.8722 118.882 35.9114 118.764 35.9893 118.672C36.0672 118.58 36.1778 118.522 36.2976 118.51C36.417 118.502 36.5349 118.541 36.6265 118.618C36.7182 118.695 36.7765 118.804 36.7894 118.923L37.0586 121.972L40.1024 121.703C40.2233 121.694 40.343 121.732 40.4358 121.81C40.5285 121.888 40.5871 122 40.5989 122.12C40.6033 122.181 40.5956 122.242 40.5763 122.3C40.557 122.358 40.5264 122.412 40.4863 122.458C40.4462 122.504 40.3974 122.542 40.3427 122.569C40.2879 122.596 40.2283 122.613 40.1674 122.617Z" fill="#E0E0E0"/>
<path d="M53.6651 39.904L38.548 41.2032L38.2371 37.6629C38.2144 35.9733 38.8314 34.3375 39.9644 33.0838C41.0973 31.83 42.6624 31.051 44.3458 30.9031C46.0291 30.7551 47.7061 31.2491 49.0404 32.286C50.3747 33.3229 51.2676 34.8259 51.54 36.4936L51.7163 38.5538L53.9017 38.3635L53.7208 36.3034C53.619 35.1414 53.2894 34.0108 52.7507 32.9762C52.212 31.9416 51.4748 31.0232 50.5812 30.2735C49.6876 29.5238 48.6551 28.9575 47.5426 28.6068C46.4301 28.2561 45.2594 28.128 44.0974 28.2298C41.7507 28.4353 39.5817 29.5646 38.0676 31.3694C37.3179 32.263 36.7515 33.2955 36.4008 34.408C36.0502 35.5205 35.9221 36.6912 36.0238 37.8532L36.3347 41.4167C35.4739 41.5851 34.7058 42.066 34.1782 42.7666C33.6505 43.4673 33.4006 44.3384 33.4765 45.2122L34.5576 57.5732C34.5961 58.0397 34.7265 58.494 34.9411 58.91C35.1558 59.326 35.4505 59.6956 35.8083 59.9974C36.1662 60.2992 36.5801 60.5273 37.0264 60.6687C37.4726 60.81 37.9424 60.8619 38.4088 60.8212L55.3587 59.341C55.8252 59.3024 56.2796 59.1721 56.6956 58.9575C57.1116 58.7428 57.4811 58.4481 57.7829 58.0903C58.0847 57.7324 58.3128 57.3185 58.4542 56.8722C58.5956 56.4259 58.6474 55.9561 58.6067 55.4898L57.5256 43.1288C57.4842 42.6635 57.3514 42.2109 57.1349 41.7969C56.9185 41.3828 56.6225 41.0156 56.2639 40.7161C55.9054 40.4165 55.4913 40.1907 55.0454 40.0513C54.5994 39.912 54.1304 39.8619 53.6651 39.904ZM47.2341 49.43L47.6053 53.6848C47.6302 53.8561 47.62 54.0306 47.5752 54.1978C47.5303 54.3649 47.4518 54.5212 47.3445 54.6569C47.2372 54.7927 47.1032 54.9051 46.9509 54.9872C46.7986 55.0694 46.6312 55.1196 46.4588 55.1348C46.2864 55.15 46.1127 55.1298 45.9484 55.0755C45.7841 55.0212 45.6325 54.934 45.5031 54.8191C45.3737 54.7042 45.2691 54.5641 45.1958 54.4073C45.1224 54.2506 45.0818 54.0805 45.0765 53.9076L44.7053 49.648C44.3225 49.413 44.0236 49.0631 43.8512 48.6483C43.6789 48.2335 43.6417 47.7749 43.7452 47.3377C43.8486 46.9006 44.0873 46.5073 44.4273 46.2137C44.7673 45.9201 45.1913 45.7413 45.6388 45.7027C46.0864 45.6641 46.5347 45.7677 46.9199 45.9987C47.3052 46.2297 47.6077 46.5764 47.7844 46.9894C47.9612 47.4024 48.0031 47.8606 47.9043 48.2988C47.8055 48.737 47.571 49.1328 47.2341 49.43Z" fill="#EBEBEB"/>
<path d="M79.5842 47.0449L78.0576 44.544C77.2882 44.6536 76.5071 44.6536 75.7376 44.544L74.2064 47.0356L73.9141 46.9568C72.9219 46.6954 71.9697 46.3005 71.0837 45.7828L70.8239 45.6344L71.4688 42.9246C71.4813 42.872 71.5042 42.8225 71.536 42.7788C71.5678 42.7351 71.6079 42.6982 71.6541 42.6701C71.7003 42.6421 71.7516 42.6234 71.805 42.6154C71.8584 42.6073 71.9129 42.6099 71.9653 42.623C72.0705 42.6483 72.1613 42.7143 72.2179 42.8065C72.2744 42.8988 72.2921 43.0096 72.2669 43.1148L71.7565 45.226C72.4159 45.5853 73.111 45.8745 73.8306 46.0891L75.3247 43.6485L75.5984 43.6948C76.4652 43.8341 77.3486 43.8341 78.2154 43.6948L78.4845 43.6485L79.9786 46.0891C80.6988 45.8762 81.3941 45.5869 82.0527 45.226L81.3892 42.442L81.6119 42.2796C82.2163 41.8437 82.758 41.327 83.222 40.7438C83.2864 40.6598 83.381 40.6041 83.4858 40.5885C83.5905 40.573 83.6973 40.5987 83.7834 40.6603C83.8285 40.6916 83.8668 40.7318 83.8958 40.7784C83.9249 40.825 83.9441 40.877 83.9524 40.9313C83.9606 40.9856 83.9577 41.041 83.9438 41.0941C83.9299 41.1473 83.9053 41.197 83.8716 41.2403C83.4156 41.8161 82.8904 42.3335 82.3079 42.7808L82.99 45.6251L82.7255 45.7736C81.8407 46.2903 80.8902 46.6852 79.8997 46.9475L79.5842 47.0449ZM70.2021 41.5976C70.0768 41.4537 69.9516 41.3006 69.8309 41.1336L66.9866 41.8156L66.8335 41.5558C66.3197 40.6679 65.925 39.7163 65.6596 38.7254L65.5853 38.4331L68.077 36.9019C67.9674 36.1324 67.9674 35.3513 68.077 34.5819L65.5853 33.0553L65.6596 32.7584C65.925 31.769 66.3198 30.8189 66.8335 29.9326L66.9866 29.6681L69.8309 30.3502C70.3058 29.7288 70.8613 29.1733 71.4828 28.6984L70.9677 26.5454C70.9426 26.4402 70.9602 26.3293 71.0168 26.2371C71.0733 26.1449 71.1642 26.0789 71.2693 26.0536C71.3211 26.0412 71.3749 26.0392 71.4275 26.0476C71.48 26.0561 71.5304 26.0749 71.5757 26.1029C71.621 26.131 71.6603 26.1677 71.6913 26.211C71.7224 26.2543 71.7445 26.3033 71.7565 26.3552L72.4015 29.0371L72.1788 29.1948C71.4639 29.7092 70.8371 30.336 70.3228 31.0508L70.1604 31.2736L67.3764 30.61C67.0155 31.2686 66.7262 31.964 66.5133 32.6841L68.9493 34.1782L68.9076 34.4473C68.7526 35.3128 68.7526 36.1989 68.9076 37.0643L68.9493 37.338L66.5133 38.8321C66.7271 39.5505 67.0164 40.2442 67.3764 40.9016L70.1604 40.238L70.3228 40.4608C70.467 40.6712 70.6218 40.874 70.7868 41.0686C70.8583 41.1437 70.8981 41.2434 70.8981 41.347C70.8981 41.4507 70.8583 41.5504 70.7868 41.6254C70.7472 41.6633 70.7004 41.6927 70.6491 41.7119C70.5978 41.731 70.5432 41.7396 70.4885 41.737C70.4338 41.7344 70.3802 41.7207 70.331 41.6967C70.2817 41.6727 70.2379 41.639 70.2021 41.5976ZM86.7855 41.8249L85.7368 41.5744C85.6317 41.5491 85.5409 41.483 85.4843 41.3908C85.4278 41.2986 85.4101 41.1877 85.4352 41.0825C85.4606 40.9774 85.5266 40.8865 85.6188 40.83C85.711 40.7734 85.8219 40.7558 85.9271 40.7809L86.3911 40.8876C86.7496 40.2301 87.0373 39.5364 87.2495 38.8182L84.8135 37.3241L84.8599 37.0504C85.0148 36.1849 85.0148 35.2988 84.8599 34.4334L84.8135 34.1643L87.2495 32.6702C87.0382 31.9502 86.7504 31.2549 86.3911 30.5961L83.6071 31.2596L83.4493 31.0369C82.9337 30.3231 82.3071 29.6965 81.5933 29.1809L81.3706 29.0232L82.0341 26.2392C81.3754 25.8798 80.6801 25.592 79.96 25.3808L78.452 27.84L78.1829 27.7936C77.3162 27.6543 76.4327 27.6543 75.566 27.7936L75.2922 27.84L73.812 25.39L73.5336 25.4736C73.4345 25.5062 73.3266 25.4988 73.2329 25.4528C73.1393 25.4068 73.0673 25.326 73.0325 25.2276C73.0134 25.1768 73.0045 25.1227 73.0066 25.0684C73.0086 25.0141 73.0214 24.9608 73.0443 24.9115C73.0672 24.8622 73.0998 24.818 73.1399 24.7815C73.1801 24.745 73.2272 24.7168 73.2784 24.6987C73.4826 24.6337 73.6914 24.5734 73.8956 24.5177L74.1879 24.4388L75.7191 26.9352C76.4882 26.8208 77.27 26.8208 78.0391 26.9352L79.5656 24.4388L79.8626 24.5177C80.8524 24.782 81.8027 25.1768 82.6884 25.6916L82.9528 25.8448L82.2708 28.6891C82.8931 29.1629 83.4488 29.7186 83.9226 30.3409L86.7669 29.6588L86.92 29.9233C87.4357 30.8086 87.8305 31.759 88.094 32.7491L88.1728 33.046L85.6765 34.5726C85.7922 35.3416 85.7922 36.1236 85.6765 36.8926L88.1728 38.4238L88.094 38.7161C87.8305 39.7077 87.4357 40.6596 86.92 41.5465L86.7855 41.8249ZM76.7724 39.7184C75.7613 39.6783 74.8025 39.2587 74.087 38.5432C73.3715 37.8278 72.9519 36.8689 72.9119 35.8579C72.8843 34.8634 73.23 33.8947 73.8809 33.1424C74.5319 32.3901 75.4409 31.9088 76.429 31.7932C76.487 31.786 76.5458 31.7912 76.6016 31.8084C76.6575 31.8256 76.709 31.8544 76.7529 31.893C76.7967 31.9316 76.8319 31.9791 76.856 32.0323C76.8802 32.0854 76.8928 32.1432 76.893 32.2016C76.8925 32.3003 76.8559 32.3953 76.7901 32.4689C76.7242 32.5424 76.6338 32.5893 76.5357 32.6006C75.8481 32.679 75.2053 32.981 74.706 33.4601C74.2067 33.9393 73.8784 34.5691 73.7717 35.2529C73.665 35.9366 73.7857 36.6365 74.1153 37.245C74.4449 37.8535 74.9651 38.337 75.5961 38.6212C76.2271 38.9054 76.934 38.9746 77.6081 38.8181C78.2822 38.6617 78.8863 38.2883 79.3277 37.7552C79.769 37.2222 80.0231 36.559 80.051 35.8675C80.0789 35.176 79.8791 34.4945 79.4821 33.9276C79.4248 33.8473 79.3997 33.7485 79.4117 33.6505C79.4238 33.5526 79.4721 33.4628 79.5471 33.3987C79.5904 33.3602 79.6414 33.3314 79.6967 33.3142C79.7519 33.2969 79.8103 33.2916 79.8678 33.2987C79.9252 33.3057 79.9806 33.3248 80.0301 33.3549C80.0796 33.3849 80.1222 33.4252 80.1549 33.4729C80.577 34.0768 80.8228 34.7861 80.8649 35.5217C80.9069 36.2572 80.7436 36.9899 80.3931 37.638C80.0426 38.286 79.5188 38.8238 78.8802 39.1912C78.2416 39.5586 77.5134 39.7411 76.777 39.7184H76.7724Z" fill="#F0F0F0"/>
<path d="M50.7558 81.0098L49.7674 79.3997C49.2675 79.474 48.7594 79.474 48.2594 79.3997L47.2711 81.0098L47.0809 80.9588C46.4403 80.7898 45.8254 80.5354 45.2527 80.2024L45.0857 80.105L45.5033 78.3511C45.5198 78.2837 45.5621 78.2255 45.6212 78.1891C45.6802 78.1526 45.7512 78.1408 45.8188 78.1562C45.8527 78.1644 45.8846 78.1791 45.9127 78.1997C45.9408 78.2202 45.9646 78.2461 45.9827 78.2758C46.0009 78.3055 46.0129 78.3386 46.0182 78.373C46.0235 78.4074 46.022 78.4425 46.0137 78.4764L45.6889 79.8405C46.1146 80.0737 46.5642 80.2604 47.0298 80.3973L47.995 78.8244L48.1666 78.8522C48.7274 78.945 49.2995 78.945 49.8602 78.8522L50.0319 78.8244L51.0017 80.3973C51.4648 80.2575 51.9126 80.0709 52.338 79.8405L51.9111 78.0495L52.055 77.9428C52.4451 77.6625 52.7948 77.3299 53.0943 76.9544C53.1351 76.8993 53.196 76.8624 53.2638 76.852C53.3316 76.8416 53.4008 76.8584 53.4562 76.8988C53.4847 76.919 53.5089 76.9448 53.5274 76.9745C53.5459 77.0042 53.5583 77.0373 53.5639 77.0718C53.5695 77.1063 53.5682 77.1416 53.5601 77.1756C53.5519 77.2096 53.5372 77.2417 53.5166 77.27C53.221 77.6422 52.8813 77.9771 52.505 78.2676L52.969 80.1236L52.7974 80.221C52.225 80.5547 51.61 80.8091 50.9692 80.9773L50.7558 81.0098ZM44.6959 77.488L44.4546 77.1957L42.5986 77.6319L42.5012 77.4648C42.1743 76.8897 41.9262 76.2733 41.7634 75.632L41.7124 75.4418L43.3225 74.4535C43.2482 73.9536 43.2482 73.4454 43.3225 72.9455L41.7124 71.9572L41.7634 71.7669C41.9316 71.1261 42.1861 70.5111 42.5198 69.9388L42.6172 69.7671L44.4732 70.2311C44.7717 69.8248 45.1192 69.457 45.5079 69.136L45.1785 67.744C45.1702 67.7105 45.1687 67.6757 45.1741 67.6416C45.1795 67.6075 45.1916 67.5748 45.2097 67.5454C45.2279 67.516 45.2517 67.4905 45.2798 67.4705C45.3079 67.4504 45.3397 67.4362 45.3734 67.4285C45.441 67.4131 45.512 67.4249 45.571 67.4614C45.63 67.4978 45.6724 67.556 45.6889 67.6234L46.1065 69.3541L45.958 69.4608C45.4982 69.7907 45.0954 70.1935 44.7655 70.6533L44.6588 70.7972L42.8678 70.3703C42.6373 70.7957 42.4508 71.2434 42.311 71.7066L43.8839 72.6717L43.8561 72.848C43.8082 73.127 43.7834 73.4095 43.7818 73.6925C43.7834 73.9771 43.8082 74.2611 43.8561 74.5416L43.8839 74.7133L42.311 75.6784C42.4499 76.1434 42.6365 76.5928 42.8678 77.0194L44.6588 76.5879L44.7655 76.7317C44.8614 76.8691 44.9652 77.0008 45.0764 77.1261C45.1221 77.1744 45.1475 77.2383 45.1475 77.3048C45.1475 77.3712 45.1221 77.4351 45.0764 77.4834C45.0524 77.5098 45.0232 77.531 44.9907 77.5457C44.9581 77.5604 44.9229 77.5681 44.8872 77.5686C44.8515 77.569 44.8161 77.5621 44.7832 77.5482C44.7503 77.5344 44.7206 77.5139 44.6959 77.488ZM55.4097 77.6319L54.7322 77.4741C54.6984 77.466 54.6665 77.4512 54.6383 77.4307C54.6102 77.4101 54.5864 77.3843 54.5683 77.3545C54.5502 77.3248 54.5381 77.2917 54.5328 77.2573C54.5275 77.2229 54.5291 77.1878 54.5374 77.154C54.545 77.1203 54.5593 77.0885 54.5793 77.0604C54.5994 77.0323 54.6249 77.0085 54.6542 76.9903C54.6836 76.9722 54.7163 76.9601 54.7504 76.9547C54.7845 76.9493 54.8194 76.9508 54.8529 76.9591L55.1452 77.0287C55.3784 76.603 55.5651 76.1534 55.702 75.6877L54.129 74.7226L54.1569 74.5509C54.2048 74.2704 54.2296 73.9864 54.2311 73.7018C54.2296 73.4187 54.2047 73.1363 54.1569 72.8573L54.129 72.681L55.702 71.7159C55.5642 71.252 55.3776 70.804 55.1452 70.3796L53.3542 70.8064L53.2474 70.6626C52.9176 70.2028 52.5148 69.8 52.055 69.4701L51.9111 69.3634L52.338 67.5724C51.9135 67.34 51.4656 67.1534 51.0017 67.0156L50.0319 68.5885L49.8602 68.5607C49.2995 68.4679 48.7274 68.4679 48.1666 68.5607L47.995 68.5885L47.0298 67.0156L46.8489 67.0712C46.7843 67.0919 46.7141 67.0865 46.6534 67.0562C46.5927 67.0258 46.5463 66.973 46.5241 66.9088C46.5116 66.8763 46.5058 66.8416 46.507 66.8067C46.5082 66.7719 46.5164 66.7376 46.5311 66.706C46.5458 66.6744 46.5668 66.6461 46.5927 66.6227C46.6186 66.5994 46.6489 66.5815 46.6818 66.5701L47.0809 66.4495L47.2711 66.4031L48.2594 68.0132C48.7594 67.9389 49.2675 67.9389 49.7674 68.0132L50.7558 66.4031L50.946 66.4495C51.5863 66.6213 52.201 66.8772 52.7742 67.2104L52.9458 67.3079L52.4818 69.1639C52.8814 69.4729 53.24 69.8315 53.549 70.2311L55.405 69.7671L55.5025 69.9388C55.8362 70.5111 56.0906 71.1261 56.2588 71.7669L56.3098 71.9572L54.6998 72.9455C54.774 73.4454 54.774 73.9536 54.6998 74.4535L56.3098 75.4418L56.2588 75.632C56.0898 76.2726 55.8354 76.8875 55.5025 77.4602L55.4097 77.6319ZM48.9415 76.2724C48.311 76.2291 47.7186 75.9551 47.2773 75.5027C46.836 75.0504 46.5769 74.4513 46.5493 73.8199C46.5218 73.1885 46.7277 72.5691 47.1279 72.08C47.5281 71.5909 48.0945 71.2664 48.7188 71.1684C48.756 71.1645 48.7936 71.1684 48.8293 71.1799C48.8649 71.1914 48.8977 71.2102 48.9256 71.2351C48.9536 71.26 48.976 71.2904 48.9916 71.3244C49.0071 71.3585 49.0153 71.3954 49.0158 71.4328C49.0161 71.4972 48.9926 71.5594 48.9497 71.6074C48.9069 71.6554 48.8477 71.6858 48.7838 71.6927C48.3924 71.7374 48.0223 71.8945 47.7182 72.1448C47.4141 72.3952 47.1889 72.7282 47.0697 73.1037C46.9506 73.4792 46.9427 73.8811 47.0469 74.261C47.151 74.6409 47.3629 74.9825 47.6569 75.2447C47.9509 75.5069 48.3144 75.6785 48.7037 75.7387C49.093 75.7989 49.4914 75.7452 49.8509 75.584C50.2104 75.4229 50.5155 75.1612 50.7296 74.8305C50.9437 74.4998 51.0575 74.1143 51.0574 73.7204C51.0583 73.3015 50.9285 72.8927 50.6862 72.5511C50.6507 72.4984 50.6355 72.4347 50.6431 72.3716C50.6508 72.3086 50.6809 72.2504 50.7279 72.2077C50.7559 72.1826 50.7888 72.1637 50.8247 72.1524C50.8605 72.141 50.8983 72.1374 50.9356 72.1418C50.9729 72.1462 51.0089 72.1584 51.0411 72.1778C51.0733 72.1972 51.101 72.2232 51.1223 72.2541C51.3937 72.6445 51.5515 73.1026 51.5781 73.5773C51.6048 74.052 51.4992 74.5248 51.2732 74.9431C51.0472 75.3614 50.7097 75.7089 50.298 75.9468C49.8864 76.1848 49.4168 76.3039 48.9415 76.2909V76.2724Z" fill="#E6E6E6"/>
<path d="M116.5 172.613C166.186 172.613 206.465 170.261 206.465 167.36C206.465 164.459 166.186 162.108 116.5 162.108C66.8137 162.108 26.535 164.459 26.535 167.36C26.535 170.261 66.8137 172.613 116.5 172.613Z" fill="#F5F5F5"/>
<path d="M169.141 42.1452H154.033L143.361 164.293H158.469C160.589 164.252 162.621 163.437 164.182 162.001C165.743 160.565 166.724 158.608 166.941 156.498L176.263 49.9358C176.371 48.9429 176.267 47.9383 175.957 46.989C175.646 46.0397 175.137 45.1674 174.463 44.4303C173.789 43.6932 172.966 43.1081 172.048 42.7141C171.131 42.3201 170.139 42.1261 169.141 42.1452Z" fill="#00897B"/>
<path d="M166.06 42.1453H114.927C112.807 42.185 110.774 42.9992 109.212 44.4343C107.651 45.8694 106.668 47.8262 106.45 49.9358L97.128 156.498C97.0207 157.49 97.1255 158.494 97.4356 159.442C97.7456 160.391 98.2539 161.263 98.9265 162C99.5992 162.737 100.421 163.323 101.337 163.718C102.253 164.114 103.243 164.31 104.241 164.293H155.369C157.487 164.248 159.515 163.431 161.073 161.995C162.63 160.56 163.61 158.605 163.828 156.498L173.15 49.9358C173.258 48.9457 173.154 47.944 172.846 46.997C172.537 46.05 172.031 45.1793 171.361 44.4427C170.69 43.7061 169.871 43.1204 168.957 42.7243C168.043 42.3282 167.056 42.1309 166.06 42.1453Z" fill="#00897B"/>
<path opacity="0.3" d="M166.06 42.1453H114.927C112.807 42.185 110.774 42.9992 109.212 44.4343C107.651 45.8694 106.668 47.8262 106.45 49.9358L97.128 156.498C97.0207 157.49 97.1255 158.494 97.4356 159.442C97.7456 160.391 98.2539 161.263 98.9265 162C99.5992 162.737 100.421 163.323 101.337 163.718C102.253 164.114 103.243 164.31 104.241 164.293H155.369C157.487 164.248 159.515 163.431 161.073 161.995C162.63 160.56 163.61 158.605 163.828 156.498L173.15 49.9358C173.258 48.9457 173.154 47.944 172.846 46.997C172.537 46.05 172.031 45.1793 171.361 44.4427C170.69 43.7061 169.871 43.1204 168.957 42.7243C168.043 42.3282 167.056 42.1309 166.06 42.1453Z" fill="white"/>
<path opacity="0.4" d="M165.842 44.6414H152.358C151.956 44.6447 151.564 44.7685 151.233 44.9968C150.902 45.2251 150.648 45.5474 150.502 45.922C149.97 47.2982 149.04 48.4847 147.831 49.3301C146.622 50.1756 145.189 50.6416 143.714 50.6688H135.761C134.371 50.6968 133.016 50.2394 131.928 49.3756C130.839 48.5117 130.086 47.2953 129.798 45.936C129.721 45.5682 129.518 45.2388 129.224 45.0049C128.93 44.7711 128.564 44.6474 128.188 44.6553H114.709C113.268 44.6808 111.886 45.2336 110.825 46.2092C109.764 47.1848 109.097 48.5155 108.951 49.9495L99.6243 156.512C99.5496 157.187 99.6197 157.869 99.8298 158.515C100.04 159.16 100.385 159.754 100.843 160.255C101.3 160.757 101.86 161.155 102.483 161.423C103.107 161.691 103.78 161.823 104.459 161.811H155.592C157.034 161.784 158.416 161.23 159.477 160.254C160.538 159.278 161.204 157.946 161.35 156.512L170.672 49.9495C170.748 49.2745 170.679 48.591 170.47 47.9447C170.261 47.2984 169.916 46.7042 169.459 46.2018C169.002 45.6993 168.442 45.3003 167.819 45.0312C167.195 44.7621 166.521 44.6292 165.842 44.6414Z" fill="white"/>
<path d="M153.1 102.544H117.317C117.071 102.548 116.827 102.5 116.601 102.402C116.375 102.305 116.172 102.161 116.007 101.979C115.841 101.797 115.715 101.582 115.639 101.349C115.562 101.115 115.536 100.868 115.563 100.623L115.744 98.5721C115.797 98.0521 116.039 97.5695 116.423 97.2156C116.808 96.8617 117.309 96.6609 117.832 96.6511H153.62C153.866 96.6471 154.11 96.6954 154.336 96.7928C154.562 96.8902 154.764 97.0345 154.93 97.2161C155.096 97.3978 155.221 97.6126 155.298 97.8464C155.374 98.0802 155.4 98.3275 155.374 98.5721L155.198 100.623C155.143 101.144 154.9 101.627 154.513 101.981C154.127 102.335 153.624 102.535 153.1 102.544Z" fill="white"/>
<path d="M152.33 111.36H116.542C116.296 111.364 116.052 111.316 115.827 111.218C115.601 111.121 115.399 110.977 115.233 110.795C115.068 110.613 114.943 110.398 114.867 110.164C114.791 109.931 114.765 109.683 114.792 109.439L114.969 107.388C115.023 106.869 115.265 106.387 115.65 106.033C116.034 105.679 116.534 105.478 117.057 105.467H152.845C153.091 105.463 153.335 105.512 153.561 105.609C153.787 105.706 153.989 105.851 154.155 106.032C154.321 106.214 154.446 106.429 154.523 106.663C154.599 106.896 154.625 107.144 154.599 107.388L154.418 109.439C154.364 109.959 154.122 110.441 153.737 110.794C153.353 111.148 152.852 111.349 152.33 111.36Z" fill="white"/>
<path opacity="0.1" d="M142.229 46.6368C142.17 47.2142 141.901 47.75 141.473 48.1425C141.046 48.535 140.489 48.7571 139.909 48.7666C139.636 48.7715 139.365 48.7182 139.115 48.6104C138.864 48.5025 138.639 48.3425 138.455 48.141C138.272 47.9395 138.133 47.7011 138.048 47.4418C137.963 47.1824 137.935 46.908 137.965 46.6368C138.024 46.0594 138.292 45.5236 138.72 45.1311C139.148 44.7386 139.704 44.5165 140.285 44.507C140.557 44.5021 140.828 44.5554 141.079 44.6632C141.329 44.7711 141.554 44.9311 141.738 45.1326C141.922 45.3341 142.061 45.5724 142.145 45.8318C142.23 46.0912 142.259 46.3656 142.229 46.6368Z" fill="black"/>
<path opacity="0.1" d="M141.264 46.6367C141.231 46.9519 141.084 47.2443 140.851 47.4588C140.618 47.6733 140.314 47.7951 139.997 47.8013C139.848 47.8042 139.7 47.7752 139.563 47.7163C139.425 47.6574 139.303 47.5699 139.202 47.4596C139.101 47.3494 139.025 47.219 138.979 47.077C138.933 46.9351 138.918 46.785 138.934 46.6367C138.966 46.3211 139.113 46.0281 139.346 45.8134C139.58 45.5987 139.884 45.4773 140.201 45.472C140.35 45.4699 140.498 45.4994 140.635 45.5585C140.771 45.6177 140.894 45.7052 140.994 45.8153C141.095 45.9254 141.171 46.0555 141.217 46.1971C141.264 46.3387 141.279 46.4885 141.264 46.6367Z" fill="black"/>
<g opacity="0.8">
<path d="M159.545 50.1909C159.465 50.192 159.386 50.1761 159.312 50.1443C159.239 50.1124 159.173 50.0653 159.119 50.0061C159.065 49.9469 159.024 49.877 158.999 49.8008C158.974 49.7247 158.966 49.6442 158.975 49.5645L159.077 48.4231C159.094 48.2544 159.172 48.0979 159.297 47.9832C159.422 47.8686 159.585 47.8039 159.754 47.8013C159.834 47.8003 159.913 47.8161 159.986 47.8476C160.059 47.8792 160.125 47.9259 160.178 47.9846C160.232 48.0432 160.273 48.1126 160.298 48.1882C160.324 48.2638 160.333 48.3438 160.325 48.4231L160.223 49.5645C160.206 49.7336 160.127 49.8907 160.003 50.0061C159.878 50.1215 159.715 50.1872 159.545 50.1909Z" fill="white"/>
<path d="M164.538 50.1909C164.458 50.192 164.378 50.1761 164.305 50.1442C164.231 50.1124 164.166 50.0653 164.112 50.0061C164.058 49.9469 164.017 49.8769 163.992 49.8008C163.967 49.7246 163.959 49.6441 163.967 49.5645L164.204 46.8872C164.221 46.7185 164.299 46.562 164.424 46.4474C164.549 46.3327 164.712 46.268 164.881 46.2654C164.961 46.2644 165.04 46.2802 165.113 46.3117C165.186 46.3433 165.252 46.39 165.306 46.4487C165.36 46.5073 165.4 46.5767 165.426 46.6523C165.451 46.7279 165.46 46.8079 165.452 46.8872L165.215 49.5645C165.198 49.7336 165.12 49.8907 164.995 50.006C164.871 50.1214 164.708 50.1872 164.538 50.1909Z" fill="white"/>
<path d="M162.042 50.191C161.962 50.1921 161.882 50.1763 161.809 50.1444C161.735 50.1125 161.669 50.0655 161.615 50.0063C161.561 49.947 161.521 49.8771 161.496 49.8009C161.471 49.7248 161.462 49.6443 161.471 49.5646L161.638 47.6576C161.655 47.4877 161.734 47.33 161.86 47.2145C161.985 47.099 162.149 47.0338 162.32 47.0312C162.4 47.03 162.479 47.0459 162.552 47.0778C162.626 47.1097 162.691 47.1568 162.745 47.2161C162.799 47.2754 162.839 47.3455 162.863 47.4216C162.888 47.4978 162.895 47.5782 162.886 47.6576L162.719 49.5646C162.702 49.7338 162.624 49.8908 162.499 50.0062C162.374 50.1216 162.212 50.1873 162.042 50.191Z" fill="white"/>
</g>
<g opacity="0.8">
<path d="M116.797 50.1909H113.66C113.615 50.1919 113.57 50.1832 113.529 50.1654C113.487 50.1475 113.45 50.121 113.42 50.0876C113.389 50.0542 113.367 50.0146 113.353 49.9716C113.339 49.9286 113.335 49.8831 113.34 49.8383L113.484 48.154C113.494 48.0584 113.539 47.9697 113.61 47.9048C113.681 47.8399 113.773 47.8031 113.869 47.8013H117.006C117.051 47.8004 117.096 47.8091 117.137 47.8269C117.179 47.8447 117.216 47.8713 117.246 47.9047C117.276 47.9381 117.299 47.9777 117.313 48.0207C117.327 48.0637 117.331 48.1091 117.326 48.154L117.177 49.8383C117.169 49.9339 117.126 50.0231 117.055 50.0883C116.985 50.1535 116.893 50.1901 116.797 50.1909Z" fill="white"/>
<path d="M118.249 49.7316C118.204 49.7325 118.159 49.7237 118.117 49.7059C118.076 49.6882 118.038 49.6617 118.008 49.6284C117.977 49.595 117.954 49.5556 117.939 49.5126C117.925 49.4696 117.92 49.424 117.925 49.3789L117.994 48.6087C118.003 48.5127 118.048 48.4235 118.119 48.3583C118.19 48.2932 118.283 48.2568 118.379 48.2561C118.424 48.2551 118.469 48.2638 118.511 48.2816C118.552 48.2995 118.589 48.326 118.62 48.3594C118.65 48.3928 118.673 48.4324 118.687 48.4754C118.7 48.5184 118.705 48.5639 118.699 48.6087L118.634 49.3789C118.624 49.4746 118.58 49.5632 118.509 49.6281C118.438 49.6931 118.345 49.7298 118.249 49.7316Z" fill="white"/>
</g>
<path d="M147.204 89.0559C153.448 83.0787 154.071 73.5963 148.595 67.8763C143.119 62.1563 133.619 62.3648 127.375 68.342C121.131 74.3192 120.508 83.8016 125.984 89.5216C131.46 95.2416 140.96 95.0331 147.204 89.0559Z" fill="white"/>
<path d="M137.343 78.1283C133.408 78.1283 130.081 79.627 129.798 82.8797L129.483 86.4942H143.741L144.057 82.8797C144.34 79.627 141.282 78.1283 137.343 78.1283Z" fill="#00897B"/>
<path d="M137.473 76.6387C139.301 76.6387 140.146 75.1586 140.303 73.3304C140.461 71.5023 139.881 70.0221 138.053 70.0221C136.225 70.0221 135.385 71.5069 135.223 73.3304C135.06 75.1539 135.645 76.6387 137.473 76.6387Z" fill="#00897B"/>
<path d="M151.467 99.4722C150.497 99.4722 149.676 99.8434 149.611 100.646L149.532 101.542H153.054L153.133 100.646C153.198 99.8434 152.441 99.4722 151.467 99.4722Z" fill="#00897B"/>
<path d="M151.5 99.1059C151.964 99.1059 152.158 98.7394 152.2 98.2893C152.242 97.8392 152.093 97.4727 151.643 97.4727C151.193 97.4727 150.985 97.8392 150.943 98.2893C150.901 98.7394 151.049 99.1059 151.5 99.1059Z" fill="#00897B"/>
<path d="M140.628 120.176H126.708C126.331 120.183 125.956 120.109 125.609 119.96C125.262 119.811 124.951 119.59 124.697 119.311C124.442 119.032 124.25 118.702 124.133 118.343C124.015 117.985 123.976 117.605 124.017 117.23C124.099 116.432 124.471 115.692 125.062 115.149C125.652 114.606 126.421 114.298 127.223 114.283H141.143C141.52 114.277 141.894 114.351 142.241 114.501C142.587 114.65 142.898 114.871 143.152 115.15C143.407 115.429 143.599 115.758 143.717 116.117C143.834 116.475 143.874 116.854 143.834 117.23C143.753 118.028 143.381 118.769 142.79 119.311C142.2 119.854 141.43 120.162 140.628 120.176Z" fill="#00897B"/>
<path d="M138.944 153.036H124.045C123.645 153.047 123.248 152.972 122.88 152.815C122.512 152.659 122.182 152.425 121.912 152.13C121.643 151.834 121.44 151.484 121.318 151.103C121.196 150.723 121.158 150.32 121.205 149.923L122.156 139.056C122.241 138.213 122.633 137.431 123.256 136.857C123.879 136.283 124.692 135.958 125.539 135.943H140.442C140.841 135.936 141.237 136.014 141.603 136.171C141.969 136.329 142.297 136.563 142.566 136.858C142.834 137.152 143.037 137.501 143.161 137.88C143.284 138.259 143.326 138.66 143.282 139.056L142.331 149.923C142.244 150.766 141.851 151.548 141.227 152.122C140.603 152.695 139.791 153.021 138.944 153.036Z" fill="#00897B"/>
<g opacity="0.6">
<path d="M134.35 141.798C134.374 141.561 134.348 141.322 134.273 141.095C134.198 140.869 134.076 140.662 133.914 140.486C133.753 140.311 133.556 140.171 133.337 140.078C133.118 139.984 132.881 139.938 132.643 139.942C132.135 139.95 131.648 140.143 131.272 140.484C130.897 140.826 130.66 141.294 130.606 141.798C130.576 142.081 130.618 142.366 130.727 142.628C130.837 142.89 131.01 143.12 131.232 143.297L130.907 147.042C130.891 147.183 130.906 147.327 130.95 147.463C130.994 147.599 131.067 147.723 131.163 147.829C131.259 147.934 131.377 148.018 131.508 148.074C131.639 148.13 131.781 148.158 131.923 148.155C132.226 148.149 132.515 148.032 132.738 147.827C132.96 147.622 133.099 147.343 133.13 147.042L133.459 143.297C133.708 143.127 133.916 142.905 134.07 142.646C134.224 142.387 134.32 142.098 134.35 141.798Z" fill="white"/>
</g>
<path d="M140.572 138.207H138.651L139.115 132.829C139.196 132.083 139.118 131.328 138.885 130.614C138.651 129.901 138.269 129.245 137.763 128.69C137.257 128.135 136.639 127.695 135.95 127.397C135.261 127.1 134.516 126.952 133.765 126.964C132.17 126.996 130.641 127.609 129.467 128.689C128.293 129.77 127.554 131.242 127.39 132.829L126.926 138.207H125.005L125.469 132.829C125.685 130.723 126.665 128.769 128.223 127.335C129.782 125.902 131.811 125.088 133.928 125.048C134.924 125.031 135.913 125.226 136.828 125.621C137.743 126.015 138.564 126.6 139.236 127.336C139.908 128.072 140.415 128.942 140.725 129.889C141.034 130.836 141.139 131.839 141.032 132.829L140.572 138.207Z" fill="#00897B"/>
<path d="M151.704 107.708L151.764 107.184C151.776 107.063 151.763 106.94 151.725 106.824C151.686 106.708 151.624 106.601 151.542 106.511C151.459 106.421 151.359 106.349 151.247 106.3C151.135 106.252 151.014 106.227 150.892 106.228C150.632 106.234 150.383 106.334 150.191 106.51C150 106.686 149.879 106.926 149.852 107.184L149.806 107.699C149.702 107.702 149.603 107.743 149.527 107.814C149.451 107.885 149.403 107.981 149.393 108.084L149.272 109.476C149.266 109.525 149.271 109.574 149.286 109.621C149.301 109.668 149.325 109.711 149.359 109.747C149.392 109.783 149.432 109.812 149.477 109.831C149.523 109.85 149.571 109.859 149.62 109.857H151.532C151.636 109.855 151.735 109.815 151.811 109.745C151.887 109.675 151.935 109.579 151.945 109.476L152.066 108.084C152.07 108.035 152.063 107.986 152.047 107.939C152.03 107.893 152.004 107.85 151.969 107.815C151.935 107.779 151.894 107.751 151.848 107.733C151.802 107.715 151.753 107.706 151.704 107.708ZM150.836 106.474C150.928 106.473 151.019 106.491 151.104 106.528C151.188 106.565 151.264 106.619 151.326 106.686C151.389 106.754 151.436 106.835 151.465 106.922C151.494 107.009 151.504 107.102 151.495 107.193L151.449 107.708H150.01L150.057 107.193C150.077 106.999 150.167 106.819 150.311 106.687C150.454 106.554 150.641 106.479 150.836 106.474Z" fill="#00897B"/>
<path d="M122.927 108.26L122.258 108.121C122.24 108.117 122.222 108.109 122.207 108.098C122.192 108.086 122.18 108.072 122.171 108.055C122.163 108.038 122.158 108.019 122.158 108C122.158 107.981 122.162 107.962 122.17 107.945L122.449 107.286C122.46 107.258 122.461 107.226 122.452 107.197C122.442 107.168 122.423 107.143 122.396 107.127C122.37 107.11 122.339 107.104 122.309 107.109C122.279 107.113 122.251 107.128 122.231 107.152L121.725 107.671C121.713 107.687 121.697 107.699 121.679 107.708C121.662 107.716 121.642 107.721 121.623 107.721C121.603 107.721 121.584 107.716 121.566 107.708C121.548 107.699 121.533 107.687 121.521 107.671L121.108 107.152C121.019 107.04 120.829 107.152 120.862 107.286L121.024 107.945C121.029 107.964 121.03 107.984 121.026 108.004C121.023 108.023 121.016 108.042 121.005 108.058C120.994 108.075 120.98 108.089 120.963 108.1C120.946 108.111 120.928 108.118 120.908 108.121L120.217 108.26C120.068 108.288 120.05 108.497 120.194 108.525L120.862 108.664C120.88 108.668 120.898 108.676 120.913 108.687C120.928 108.699 120.94 108.714 120.948 108.731C120.956 108.748 120.96 108.767 120.96 108.786C120.959 108.805 120.954 108.824 120.945 108.84L120.676 109.504C120.665 109.532 120.663 109.564 120.673 109.593C120.682 109.623 120.702 109.647 120.728 109.664C120.754 109.68 120.785 109.686 120.816 109.681C120.846 109.677 120.874 109.662 120.894 109.639L121.4 109.119C121.413 109.105 121.429 109.094 121.446 109.086C121.464 109.078 121.483 109.074 121.502 109.074C121.521 109.074 121.54 109.078 121.558 109.086C121.575 109.094 121.591 109.105 121.604 109.119L122.017 109.639C122.105 109.75 122.295 109.639 122.258 109.504L122.096 108.845C122.089 108.806 122.098 108.765 122.12 108.732C122.143 108.7 122.177 108.677 122.217 108.669L122.908 108.53C123.052 108.497 123.07 108.288 122.927 108.26Z" fill="#263238"/>
<path d="M127.316 108.26L126.648 108.121C126.629 108.117 126.612 108.109 126.596 108.098C126.581 108.086 126.569 108.072 126.561 108.055C126.552 108.038 126.548 108.019 126.547 108C126.547 107.981 126.551 107.962 126.559 107.945L126.838 107.286C126.849 107.258 126.851 107.226 126.841 107.197C126.831 107.168 126.812 107.143 126.786 107.127C126.76 107.11 126.729 107.104 126.698 107.109C126.668 107.113 126.64 107.128 126.62 107.152L126.114 107.671C126.102 107.687 126.086 107.699 126.069 107.708C126.051 107.716 126.032 107.721 126.012 107.721C125.992 107.721 125.973 107.716 125.955 107.708C125.938 107.699 125.922 107.687 125.91 107.671L125.497 107.152C125.409 107.04 125.219 107.152 125.256 107.286L125.418 107.945C125.422 107.964 125.422 107.985 125.418 108.004C125.414 108.024 125.406 108.042 125.395 108.059C125.384 108.075 125.369 108.089 125.353 108.1C125.336 108.111 125.317 108.118 125.297 108.121L124.606 108.26C124.458 108.288 124.439 108.497 124.583 108.525L125.251 108.664C125.27 108.668 125.287 108.676 125.302 108.687C125.317 108.699 125.329 108.714 125.338 108.731C125.346 108.748 125.351 108.767 125.351 108.786C125.351 108.805 125.347 108.823 125.339 108.84L125.061 109.499C125.049 109.528 125.048 109.559 125.058 109.589C125.067 109.618 125.087 109.643 125.113 109.659C125.139 109.675 125.17 109.681 125.2 109.677C125.231 109.672 125.259 109.657 125.279 109.634L125.785 109.114C125.798 109.1 125.813 109.089 125.831 109.081C125.849 109.074 125.868 109.07 125.887 109.07C125.906 109.07 125.925 109.074 125.942 109.081C125.96 109.089 125.976 109.1 125.989 109.114L126.402 109.634C126.49 109.745 126.68 109.634 126.648 109.499L126.485 108.84C126.481 108.821 126.481 108.801 126.485 108.782C126.488 108.763 126.496 108.745 126.506 108.728C126.517 108.712 126.531 108.698 126.547 108.687C126.564 108.676 126.582 108.668 126.601 108.664L127.293 108.525C127.441 108.497 127.46 108.288 127.316 108.26Z" fill="#263238"/>
<path d="M131.705 108.261L131.042 108.121C131.023 108.119 131.005 108.111 130.989 108.1C130.973 108.088 130.961 108.073 130.952 108.056C130.943 108.039 130.939 108.02 130.939 108C130.94 107.981 130.944 107.962 130.954 107.945L131.232 107.286C131.25 107.257 131.255 107.221 131.247 107.188C131.239 107.154 131.217 107.125 131.188 107.108C131.158 107.09 131.123 107.084 131.089 107.093C131.056 107.101 131.027 107.122 131.009 107.152L130.508 107.671C130.496 107.687 130.48 107.699 130.462 107.708C130.444 107.717 130.424 107.721 130.404 107.721C130.384 107.721 130.364 107.717 130.346 107.708C130.328 107.699 130.312 107.687 130.299 107.671L129.886 107.152C129.798 107.04 129.608 107.152 129.645 107.286L129.808 107.945C129.812 107.964 129.812 107.984 129.808 108.003C129.805 108.023 129.797 108.041 129.786 108.057C129.776 108.074 129.762 108.088 129.745 108.099C129.729 108.11 129.711 108.118 129.692 108.121L129 108.261C128.852 108.288 128.833 108.497 128.977 108.525L129.641 108.664C129.659 108.668 129.677 108.676 129.692 108.688C129.707 108.699 129.719 108.714 129.727 108.731C129.736 108.748 129.74 108.767 129.741 108.786C129.741 108.805 129.737 108.823 129.729 108.841L129.45 109.5C129.432 109.529 129.427 109.564 129.435 109.598C129.444 109.631 129.465 109.66 129.494 109.678C129.524 109.696 129.559 109.701 129.593 109.693C129.626 109.685 129.655 109.664 129.673 109.634L130.174 109.114C130.187 109.1 130.203 109.089 130.221 109.081C130.238 109.074 130.257 109.07 130.276 109.07C130.295 109.07 130.314 109.074 130.332 109.081C130.349 109.089 130.365 109.1 130.378 109.114L130.796 109.634C130.884 109.745 131.074 109.634 131.037 109.5L130.875 108.841C130.868 108.802 130.876 108.762 130.898 108.729C130.919 108.696 130.952 108.673 130.991 108.664L131.682 108.525C131.812 108.497 131.849 108.288 131.705 108.261Z" fill="#263238"/>
<path d="M136.099 108.26L135.431 108.121C135.413 108.117 135.395 108.109 135.38 108.098C135.365 108.086 135.353 108.072 135.344 108.055C135.336 108.038 135.331 108.019 135.331 108C135.331 107.981 135.335 107.962 135.343 107.945L135.621 107.286C135.633 107.258 135.634 107.226 135.625 107.197C135.615 107.168 135.595 107.143 135.569 107.127C135.543 107.11 135.512 107.104 135.482 107.109C135.451 107.113 135.424 107.128 135.403 107.152L134.898 107.671C134.885 107.687 134.87 107.699 134.852 107.708C134.835 107.716 134.815 107.721 134.795 107.721C134.776 107.721 134.756 107.716 134.739 107.708C134.721 107.699 134.706 107.687 134.693 107.671L134.28 107.152C134.192 107.04 134.002 107.152 134.035 107.286L134.197 107.945C134.202 107.964 134.202 107.984 134.199 108.004C134.196 108.023 134.188 108.042 134.177 108.058C134.167 108.075 134.152 108.089 134.136 108.1C134.119 108.111 134.1 108.118 134.081 108.121L133.39 108.26C133.241 108.288 133.223 108.497 133.39 108.525L134.058 108.664C134.076 108.668 134.094 108.676 134.109 108.687C134.124 108.699 134.136 108.714 134.144 108.731C134.152 108.748 134.156 108.767 134.156 108.786C134.155 108.805 134.15 108.824 134.141 108.84L133.867 109.499C133.856 109.528 133.855 109.559 133.864 109.589C133.874 109.618 133.893 109.643 133.92 109.659C133.946 109.675 133.977 109.681 134.007 109.677C134.038 109.672 134.065 109.657 134.086 109.634L134.591 109.114C134.604 109.1 134.62 109.089 134.638 109.081C134.655 109.074 134.674 109.07 134.693 109.07C134.713 109.07 134.732 109.074 134.749 109.081C134.767 109.089 134.782 109.1 134.795 109.114L135.208 109.634C135.297 109.745 135.487 109.634 135.45 109.499L135.287 108.84C135.28 108.801 135.289 108.761 135.312 108.728C135.334 108.695 135.369 108.672 135.408 108.664L136.099 108.525C136.225 108.497 136.243 108.288 136.099 108.26Z" fill="#263238"/>
<path d="M140.489 108.26L139.821 108.121C139.802 108.117 139.785 108.109 139.77 108.098C139.754 108.086 139.742 108.072 139.734 108.055C139.725 108.038 139.721 108.019 139.721 108C139.72 107.981 139.724 107.962 139.733 107.945L140.011 107.286C140.023 107.258 140.024 107.226 140.014 107.197C140.005 107.168 139.985 107.143 139.959 107.127C139.933 107.11 139.902 107.104 139.871 107.109C139.841 107.113 139.813 107.128 139.793 107.152L139.287 107.671C139.275 107.687 139.259 107.699 139.242 107.708C139.224 107.716 139.205 107.721 139.185 107.721C139.165 107.721 139.146 107.716 139.128 107.708C139.111 107.699 139.095 107.687 139.083 107.671L138.67 107.152C138.582 107.04 138.392 107.152 138.429 107.286L138.591 107.945C138.595 107.964 138.595 107.985 138.591 108.004C138.587 108.024 138.579 108.042 138.568 108.059C138.557 108.075 138.543 108.089 138.526 108.1C138.509 108.111 138.49 108.118 138.47 108.121L137.779 108.26C137.631 108.288 137.612 108.497 137.756 108.525L138.424 108.664C138.443 108.668 138.46 108.676 138.475 108.687C138.49 108.699 138.503 108.714 138.511 108.731C138.52 108.748 138.524 108.767 138.524 108.786C138.524 108.805 138.52 108.823 138.512 108.84L138.234 109.499C138.222 109.528 138.221 109.559 138.231 109.589C138.24 109.618 138.26 109.643 138.286 109.659C138.312 109.675 138.343 109.681 138.374 109.677C138.404 109.672 138.432 109.657 138.452 109.634L138.958 109.114C138.971 109.1 138.987 109.089 139.004 109.081C139.022 109.074 139.041 109.07 139.06 109.07C139.079 109.07 139.098 109.074 139.115 109.081C139.133 109.089 139.149 109.1 139.162 109.114L139.575 109.634C139.663 109.745 139.853 109.634 139.821 109.499L139.658 108.84C139.654 108.821 139.654 108.801 139.658 108.782C139.661 108.763 139.669 108.745 139.68 108.728C139.69 108.712 139.704 108.698 139.721 108.687C139.737 108.676 139.755 108.668 139.774 108.664L140.466 108.525C140.628 108.497 140.628 108.288 140.489 108.26Z" fill="#263238"/>
<path d="M144.878 108.261L144.21 108.121C144.191 108.118 144.174 108.11 144.159 108.098C144.144 108.087 144.132 108.072 144.123 108.055C144.115 108.037 144.111 108.018 144.112 107.999C144.112 107.98 144.117 107.962 144.126 107.945L144.405 107.286C144.414 107.272 144.42 107.255 144.422 107.239C144.425 107.222 144.424 107.204 144.42 107.188C144.416 107.171 144.408 107.156 144.398 107.142C144.388 107.128 144.375 107.116 144.361 107.108C144.346 107.099 144.33 107.093 144.313 107.09C144.296 107.088 144.279 107.089 144.262 107.093C144.246 107.097 144.23 107.104 144.216 107.114C144.203 107.124 144.191 107.137 144.182 107.152L143.681 107.671C143.668 107.687 143.653 107.699 143.634 107.708C143.616 107.717 143.597 107.721 143.577 107.721C143.557 107.721 143.537 107.717 143.519 107.708C143.501 107.699 143.485 107.687 143.472 107.671L143.059 107.152C142.971 107.04 142.781 107.152 142.818 107.286L142.98 107.945C142.984 107.964 142.985 107.984 142.981 108.003C142.977 108.023 142.97 108.041 142.959 108.057C142.948 108.074 142.934 108.088 142.918 108.099C142.902 108.11 142.884 108.118 142.864 108.121L142.173 108.261C142.025 108.288 142.006 108.497 142.15 108.525L142.813 108.664C142.832 108.668 142.849 108.676 142.865 108.688C142.88 108.699 142.892 108.714 142.9 108.731C142.909 108.748 142.913 108.767 142.914 108.786C142.914 108.805 142.91 108.823 142.902 108.841L142.623 109.5C142.605 109.529 142.6 109.564 142.608 109.598C142.616 109.631 142.638 109.66 142.667 109.678C142.697 109.696 142.732 109.701 142.766 109.693C142.799 109.685 142.828 109.664 142.846 109.634L143.347 109.114C143.36 109.1 143.376 109.089 143.393 109.081C143.411 109.074 143.43 109.07 143.449 109.07C143.468 109.07 143.487 109.074 143.505 109.081C143.522 109.089 143.538 109.1 143.551 109.114L143.964 109.634C143.986 109.658 144.015 109.675 144.047 109.68C144.079 109.686 144.112 109.68 144.141 109.665C144.169 109.649 144.192 109.624 144.204 109.594C144.217 109.564 144.219 109.531 144.21 109.5L144.048 108.841C144.041 108.802 144.049 108.762 144.07 108.729C144.092 108.696 144.125 108.673 144.164 108.664L144.855 108.525C145.003 108.497 145.022 108.288 144.878 108.261Z" fill="#263238"/>
<path d="M134.294 98.651H126.054C125.801 98.6553 125.558 98.7521 125.372 98.9231C125.186 99.0941 125.068 99.3274 125.042 99.579C125.029 99.6974 125.041 99.8173 125.078 99.9305C125.115 100.044 125.176 100.148 125.256 100.236C125.336 100.324 125.435 100.393 125.544 100.44C125.654 100.487 125.772 100.51 125.891 100.507H134.132C134.385 100.503 134.627 100.406 134.814 100.235C135 100.064 135.117 99.8306 135.143 99.579C135.156 99.4607 135.143 99.3412 135.106 99.2282C135.069 99.1153 135.008 99.0115 134.928 98.9238C134.848 98.8361 134.75 98.7664 134.64 98.7193C134.531 98.6723 134.413 98.649 134.294 98.651Z" fill="#263238"/>
<path d="M142.665 98.6509H137.881C137.629 98.6553 137.387 98.7523 137.201 98.9234C137.015 99.0944 136.899 99.3277 136.874 99.5789C136.861 99.6969 136.873 99.8163 136.91 99.9293C136.946 100.042 137.006 100.146 137.086 100.234C137.166 100.322 137.264 100.392 137.373 100.439C137.482 100.486 137.6 100.509 137.719 100.507H142.484C142.736 100.502 142.978 100.405 143.164 100.234C143.349 100.063 143.466 99.8301 143.491 99.5789C143.504 99.4624 143.492 99.3446 143.457 99.2329C143.421 99.1213 143.362 99.0183 143.285 98.9308C143.207 98.8433 143.111 98.7731 143.004 98.7249C142.898 98.6767 142.782 98.6515 142.665 98.6509Z" fill="#263238"/>
<path d="M148.98 140.713C146.067 141.822 143.438 143.565 141.282 145.817C139.973 144.8 138.413 144.159 136.767 143.961L136.549 143.928L136.457 145.023L136.577 145.07C138.382 145.734 139.908 146.99 140.906 148.633L141.064 148.893L141.236 148.614C143.157 145.547 145.869 143.053 149.087 141.395L149.193 141.339L149.254 140.615L148.98 140.713Z" fill="#263238"/>
<path opacity="0.2" d="M107.517 49.3557C106.926 50.3882 106.562 51.5352 106.45 52.7197L99.5408 131.702H120.922L125.219 115.234L123.803 98.7624L128.1 82.2951L126.708 65.8277L131.005 49.3557H107.517Z" fill="black"/>
<path d="M124.829 61.1878L129.125 44.7158H75.0555L70.7635 61.1878L72.1741 77.6552L67.8821 94.1226L69.2926 110.595L65.0006 127.062H119.066L123.363 110.595L121.947 94.1226L126.244 77.6552L124.829 61.1878Z" fill="#00897B"/>
<path opacity="0.7" d="M124.829 61.1878L129.125 44.7158H75.0555L70.7635 61.1878L72.1741 77.6552L67.8821 94.1226L69.2926 110.595L65.0006 127.062H119.066L123.363 110.595L121.947 94.1226L126.244 77.6552L124.829 61.1878Z" fill="white"/>
<path opacity="0.5" d="M124.829 61.1878H70.7635L75.0556 44.7158H129.125L124.829 61.1878Z" fill="white"/>
<path opacity="0.5" d="M121.947 94.1224H67.8821L72.1741 77.655H126.244L121.947 94.1224Z" fill="white"/>
<path opacity="0.5" d="M119.066 127.062H64.9958L69.2925 110.594H123.362L119.066 127.062Z" fill="white"/>
<path opacity="0.2" d="M117.595 68.0688C117.04 68.2291 116.465 68.3073 115.887 68.3008C115.104 68.3355 114.325 68.1761 113.619 67.8368C113.491 67.7611 113.345 67.721 113.196 67.7208C113.06 67.7227 112.926 67.7578 112.807 67.8229H112.779C112.571 67.9392 112.35 68.0282 112.12 68.0874C111.601 68.2244 111.065 68.2915 110.528 68.2869C110.366 68.2869 110.208 68.2869 110.064 68.2869C109.648 68.2602 109.235 68.187 108.835 68.0688C108.776 68.0513 108.715 68.0404 108.654 68.0363C108.552 68.028 108.449 68.0409 108.352 68.0742C108.255 68.1075 108.166 68.1604 108.091 68.2297C108.016 68.299 107.955 68.3831 107.914 68.4768C107.873 68.5705 107.851 68.6717 107.851 68.7741V69.2752H86.804C86.4172 69.2752 86.0343 69.3515 85.6771 69.4996C85.3199 69.6477 84.9954 69.8648 84.7222 70.1385C84.4489 70.4121 84.2324 70.737 84.0848 71.0944C83.9372 71.4519 83.8616 71.8349 83.8622 72.2216V75.1866C83.861 75.5737 83.9362 75.9572 84.0835 76.3152C84.2307 76.6732 84.4472 76.9986 84.7205 77.2727C84.9938 77.5469 85.3185 77.7644 85.676 77.9128C86.0336 78.0612 86.4169 78.1376 86.804 78.1376H110.714H110.872C111.127 78.3511 111.396 78.5645 111.684 78.7826C111.971 79.0007 112.38 79.3023 112.755 79.5714C112.884 79.6642 113.038 79.7142 113.196 79.7142C113.355 79.7142 113.509 79.6642 113.637 79.5714C116.644 77.3906 118.574 75.8872 118.574 71.7576V68.788C118.575 68.6693 118.549 68.5519 118.496 68.4456C118.443 68.3393 118.365 68.2472 118.269 68.1769C118.174 68.1065 118.062 68.0601 117.945 68.0413C117.828 68.0225 117.708 68.0319 117.595 68.0688Z" fill="black"/>
<path d="M110.255 67.6466H86.3494C84.7221 67.6466 83.403 68.9658 83.403 70.593V73.558C83.403 75.1852 84.7221 76.5044 86.3494 76.5044H110.255C111.882 76.5044 113.201 75.1852 113.201 73.558V70.593C113.201 68.9658 111.882 67.6466 110.255 67.6466Z" fill="#00897B"/>
<path d="M115.428 66.6675C114.645 66.701 113.866 66.5417 113.159 66.2035C113.034 66.1264 112.889 66.0856 112.742 66.0856C112.594 66.0856 112.45 66.1264 112.324 66.2035C111.616 66.5423 110.835 66.7016 110.05 66.6675C109.473 66.6737 108.898 66.5955 108.343 66.4355C108.231 66.398 108.112 66.3875 107.995 66.4052C107.879 66.4228 107.768 66.4679 107.672 66.5368C107.577 66.6058 107.499 66.6965 107.445 66.8016C107.391 66.9066 107.364 67.0229 107.364 67.1408V70.1104C107.364 74.2447 109.294 75.748 112.301 77.9288C112.429 78.0217 112.583 78.0716 112.742 78.0716C112.9 78.0716 113.054 78.0217 113.182 77.9288C116.189 75.748 118.119 74.2447 118.119 70.1104V67.1408C118.119 67.0227 118.09 66.9064 118.036 66.8014C117.982 66.6965 117.904 66.6058 117.808 66.537C117.712 66.4682 117.601 66.4231 117.484 66.4054C117.367 66.3878 117.248 66.3981 117.136 66.4355C116.581 66.5959 116.006 66.674 115.428 66.6675Z" fill="#00897B"/>
<path opacity="0.3" d="M115.428 66.6675C114.645 66.701 113.866 66.5417 113.159 66.2035C113.034 66.1264 112.889 66.0856 112.742 66.0856C112.594 66.0856 112.45 66.1264 112.324 66.2035C111.616 66.5423 110.835 66.7016 110.05 66.6675C109.473 66.6737 108.898 66.5955 108.343 66.4355C108.231 66.398 108.112 66.3875 107.995 66.4052C107.879 66.4228 107.768 66.4679 107.672 66.5368C107.577 66.6058 107.499 66.6965 107.445 66.8016C107.391 66.9066 107.364 67.0229 107.364 67.1408V70.1104C107.364 74.2447 109.294 75.748 112.301 77.9288C112.429 78.0217 112.583 78.0716 112.742 78.0716C112.9 78.0716 113.054 78.0217 113.182 77.9288C116.189 75.748 118.119 74.2447 118.119 70.1104V67.1408C118.119 67.0227 118.09 66.9064 118.036 66.8014C117.982 66.6965 117.904 66.6058 117.808 66.537C117.712 66.4682 117.601 66.4231 117.484 66.4054C117.367 66.3878 117.248 66.3981 117.136 66.4355C116.581 66.5959 116.006 66.674 115.428 66.6675Z" fill="white"/>
<path opacity="0.2" d="M112.324 66.1943C111.616 66.533 110.835 66.6924 110.05 66.6583C109.473 66.6641 108.898 66.586 108.343 66.4263C108.231 66.3887 108.112 66.3783 107.995 66.3959C107.879 66.4135 107.768 66.4587 107.672 66.5276C107.577 66.5965 107.499 66.6873 107.445 66.7923C107.391 66.8973 107.364 67.0136 107.364 67.1316V70.1012C107.364 74.2354 109.294 75.7388 112.301 77.9196C112.435 78.0172 112.598 78.0678 112.765 78.0634V66.0736C112.609 66.0706 112.456 66.1125 112.324 66.1943Z" fill="white"/>
<path d="M117.052 69.3031C115.243 70.0117 113.632 71.1467 112.356 72.6114C111.467 71.9555 110.423 71.5385 109.326 71.4004H109.183V72.1103L109.261 72.1382C110.481 72.5784 111.533 73.3897 112.268 74.4582L112.384 74.6252L112.482 74.4442C113.548 72.4619 115.173 70.8358 117.154 69.7671L117.224 69.7346V69.2706L117.052 69.3031Z" fill="#263238"/>
<path d="M128.17 49.3512H126.119C125.855 49.3561 125.593 49.3047 125.351 49.2004C125.108 49.0961 124.891 48.9413 124.713 48.7463C124.535 48.5513 124.401 48.3207 124.319 48.0697C124.238 47.8188 124.21 47.5533 124.24 47.291L124.421 45.2401C124.476 44.6824 124.735 44.1644 125.147 43.7847C125.559 43.4049 126.097 43.1897 126.657 43.18H128.708C128.972 43.1744 129.235 43.2253 129.477 43.3293C129.72 43.4334 129.938 43.5881 130.117 43.7831C130.295 43.9781 130.43 44.209 130.512 44.4603C130.594 44.7116 130.621 44.9775 130.592 45.2401L130.411 47.291C130.348 47.8469 130.087 48.3615 129.675 48.7401C129.264 49.1186 128.729 49.3357 128.17 49.3512Z" fill="#00897B"/>
<path d="M129.023 45.2354L128.578 44.7435L127.455 45.7736L126.518 44.7435L125.984 45.2354L126.926 46.2655L125.808 47.2955L126.253 47.7827L127.372 46.7527L128.313 47.7827L128.842 47.2955L127.901 46.2655L129.023 45.2354Z" fill="white"/>
<path d="M82.3357 67.0435C83.5235 68.338 84.6557 69.679 85.7832 71.0292C86.9107 72.3795 88.0011 73.7575 89.0869 75.1403C89.1333 75.2006 89.1147 75.1774 89.124 75.1959C89.1333 75.2145 89.124 75.2191 89.124 75.2238C89.1321 75.241 89.1431 75.2567 89.1565 75.2702C89.196 75.3264 89.2463 75.3742 89.3045 75.4108C89.3626 75.4475 89.4274 75.4722 89.4952 75.4836C89.5475 75.4907 89.6006 75.4907 89.6529 75.4836C89.6807 75.4858 89.7087 75.4858 89.7365 75.4836H89.7782C89.8014 75.4836 89.7782 75.4836 89.8525 75.4558L91.0125 74.8247C92.5715 73.9988 94.1445 73.1915 95.7685 72.4676L97.128 74.1519C95.8195 75.3537 94.4554 76.8617 93.0773 77.966L92.0379 78.7827C91.9733 78.8354 91.9051 78.8834 91.8337 78.9265C91.755 78.9825 91.6729 79.0336 91.5878 79.0796C91.4199 79.1764 91.2463 79.2631 91.0682 79.3395C90.7086 79.4905 90.3313 79.595 89.9453 79.6503C89.1646 79.765 88.3678 79.6853 87.6253 79.4183C87.2476 79.2842 86.8889 79.1018 86.5581 78.8755C86.391 78.7641 86.2333 78.6342 86.0941 78.5089C86.0152 78.4439 85.9502 78.3697 85.876 78.3001L85.6904 78.1145C84.4608 76.8524 83.2497 75.5811 82.0619 74.2865C80.8741 72.9919 79.7002 71.6881 78.5773 70.3332L82.3357 67.0435Z" fill="#B55B52"/>
<path d="M95.156 73.4884L96.2371 70.0131L99.0861 71.4329C99.0861 71.4329 98.6685 73.9663 96.599 74.4071L95.156 73.4884Z" fill="#B55B52"/>
<path d="M97.3739 69.0525L99.9444 69.7578L99.0814 71.4328L96.2324 70.013L97.3739 69.0525Z" fill="#B55B52"/>
<path d="M67.3578 67.99C67.0515 69.4655 66.6711 70.9271 66.2767 72.384C65.8823 73.841 65.4507 75.284 65.0007 76.7271L64.8336 77.27L64.7501 77.5391C64.7389 77.5778 64.7233 77.6152 64.7037 77.6504C64.6508 77.7997 64.621 77.9562 64.6155 78.1144C64.6057 78.4516 64.6997 78.7836 64.8847 79.0656C64.9759 79.1894 65.0768 79.3057 65.1863 79.4136L65.5714 79.8359L66.3323 80.685C66.8288 81.2604 67.3299 81.8357 67.8032 82.4389L66.1839 84.2949C65.5157 83.9144 64.8754 83.5015 64.2351 83.0932L63.2839 82.4621L62.8199 82.142C62.6621 82.0306 62.5322 81.9564 62.277 81.7476C61.3691 80.9739 60.7427 79.9216 60.4952 78.7548C60.3707 78.16 60.3409 77.5492 60.4071 76.9452C60.4071 76.7967 60.4535 76.6296 60.4767 76.4812L60.5277 76.2028L60.6251 75.646C60.885 74.1565 61.1634 72.6717 61.4743 71.1962C61.7851 69.7207 62.1192 68.2498 62.5136 66.7975L67.3578 67.99Z" fill="#B55B52"/>
<path d="M66.2163 82.2904L68.128 81.3114L68.9725 84.5594C68.9725 84.5594 67.4366 85.1487 66.2488 84.3924L66.2163 82.2904Z" fill="#B55B52"/>
<path d="M70.7728 80.2675L70.8609 83.2556L68.7219 84.6523L67.9795 81.3718L70.7728 80.2675Z" fill="#B55B52"/>
<path d="M77.0322 52.6501C77.0786 52.8775 77.241 53.0399 77.3895 53.0121C77.5379 52.9842 77.6261 52.7708 77.5797 52.5481C77.5333 52.3253 77.3709 52.1583 77.2224 52.1861C77.0739 52.214 76.9858 52.4321 77.0322 52.6501Z" fill="#263238"/>
<path d="M77.2177 53.0446C77.6354 53.6917 78.1396 54.2787 78.7164 54.7892C78.5821 54.9338 78.4179 55.0474 78.2351 55.1219C78.0524 55.1965 77.8556 55.2302 77.6584 55.2207L77.2177 53.0446Z" fill="#A02724"/>
<path d="M75.9325 51.5458C75.9057 51.5455 75.8797 51.5375 75.8574 51.5227C75.8351 51.508 75.8175 51.4871 75.8067 51.4627C75.7959 51.4382 75.7925 51.4112 75.7966 51.3848C75.8008 51.3584 75.8126 51.3337 75.8304 51.3138C75.9756 51.1494 76.1577 51.0217 76.3617 50.9411C76.5657 50.8605 76.7859 50.8292 77.0043 50.8498C77.0223 50.8531 77.0394 50.86 77.0547 50.87C77.0701 50.8799 77.0833 50.8928 77.0936 50.9079C77.104 50.923 77.1112 50.94 77.115 50.9579C77.1188 50.9758 77.119 50.9942 77.1157 51.0122C77.1129 51.03 77.1065 51.047 77.097 51.0623C77.0875 51.0776 77.075 51.0909 77.0603 51.1012C77.0456 51.1116 77.029 51.1189 77.0114 51.1228C76.9938 51.1266 76.9756 51.1269 76.9579 51.1236C76.7848 51.107 76.6103 51.132 76.4489 51.1966C76.2874 51.2611 76.1438 51.3634 76.0299 51.4948C76.0051 51.5236 75.9703 51.5419 75.9325 51.5458Z" fill="#263238"/>
<path d="M70.3413 55.8843C70.8517 58.014 71.3667 61.9163 69.5386 63.3315C69.5386 63.3315 70.2531 65.4937 75.1066 65.4937C80.4426 65.4937 77.6586 64.1017 77.6586 64.1017C74.7447 63.5356 74.8189 61.0068 75.3386 59.3504L70.3413 55.8843Z" fill="#B55B52"/>
<path d="M68.9679 63.7258C68.6524 63.1366 68.2997 62.4591 69.0236 62.2457C69.8217 62.0137 74.9396 61.5822 76.4476 62.0183C75.9836 62.8396 76.7677 63.8743 76.7677 63.8743L68.9679 63.7258Z" fill="#263238"/>
<path d="M73.2087 163.291H76.5542L76.8883 156.554H73.5382L73.2087 163.291Z" fill="#B55B52"/>
<path d="M51.9622 162.363L55.354 162.544L57.4142 155.904L54.0223 155.723L51.9622 162.363Z" fill="#B55B52"/>
<path d="M55.2519 162.275L52.0549 161.584C51.999 161.571 51.9403 161.578 51.8888 161.603C51.8372 161.628 51.796 161.671 51.7719 161.723L50.6629 164.131C50.6356 164.189 50.6221 164.253 50.6234 164.318C50.6246 164.382 50.6407 164.446 50.6702 164.503C50.6998 164.56 50.7421 164.61 50.794 164.649C50.8458 164.687 50.9057 164.713 50.9692 164.725C52.0874 164.948 52.6442 164.999 54.0501 165.305C54.9132 165.49 56.8666 165.968 58.0591 166.233C59.2516 166.497 59.6645 165.347 59.2005 165.133C57.1125 164.182 56.2402 163.342 55.6741 162.558C55.5725 162.415 55.4224 162.315 55.2519 162.275Z" fill="#263238"/>
<path d="M76.3779 162.952H73.1995C73.142 162.953 73.0865 162.973 73.0419 163.009C72.9972 163.045 72.9661 163.096 72.9536 163.152L72.3782 165.736C72.3634 165.799 72.363 165.864 72.3772 165.927C72.3913 165.989 72.4196 166.048 72.4599 166.098C72.5002 166.148 72.5514 166.189 72.6096 166.216C72.6678 166.243 72.7315 166.257 72.7958 166.256C73.9419 166.256 75.5798 166.168 77.0414 166.168C78.7258 166.168 80.1781 166.261 82.1454 166.261C83.3379 166.261 83.672 165.054 83.1709 164.943C80.8926 164.446 79.0366 164.391 77.0693 163.18C76.8637 163.043 76.6247 162.964 76.3779 162.952Z" fill="#263238"/>
<path d="M63.4741 64.3152C60.9499 65.5169 60.2632 72.8017 60.2632 72.8017L66.5133 75.6878C67.5697 73.9059 68.1453 71.8801 68.1837 69.8089C68.3089 66.0459 66.0585 63.1041 63.4741 64.3152Z" fill="#263238"/>
<path opacity="0.4" d="M66.852 68.8066C65.7245 70.5606 65.8312 73.2703 66.2209 75.5578L66.4993 75.6878C67.5548 73.9054 68.1303 71.8799 68.1697 69.8089C68.1697 69.5862 68.1697 69.3449 68.1697 69.1454L66.852 68.8066Z" fill="black"/>
<path d="M80.9158 64.1388C80.9158 64.1388 84.0153 67.6374 81.0875 89.2876H65.5296C65.4228 86.898 66.9216 75.247 64.6016 63.9903C66.321 63.6596 68.06 63.4395 69.8076 63.3315C72.0114 63.2061 74.2205 63.2061 76.4243 63.3315C77.94 63.485 79.4416 63.7549 80.9158 64.1388Z" fill="#00897B"/>
<path opacity="0.6" d="M80.9158 64.1388C80.9158 64.1388 84.0153 67.6374 81.0875 89.2876H65.5296C65.4228 86.898 66.9216 75.247 64.6016 63.9903C66.321 63.6596 68.06 63.4395 69.8076 63.3315C72.0114 63.2061 74.2205 63.2061 76.4243 63.3315C77.94 63.485 79.4416 63.7549 80.9158 64.1388Z" fill="#FAFAFA"/>
<path opacity="0.2" d="M82.2753 70.7554L82.2196 70.7043L79.1247 69.0525C78.8092 73.8178 80.939 76.8059 82.2057 78.1098C82.3645 75.6615 82.3877 73.2062 82.2753 70.7554Z" fill="black"/>
<path opacity="0.2" d="M76.8882 156.554L76.7165 160.029H73.3665L73.5381 156.554H76.8882Z" fill="black"/>
<path opacity="0.2" d="M54.0223 155.728L57.4141 155.904L56.3516 159.328L52.9597 159.147L54.0223 155.728Z" fill="black"/>
<path d="M69.2647 53.722C70.0117 56.506 70.3087 58.181 72.0487 59.341C74.6378 61.0856 77.858 59.0812 77.9601 56.1255C78.0482 53.4668 76.814 49.3511 73.8212 48.7896C73.1604 48.6589 72.4772 48.6998 71.8367 48.9083C71.1963 49.1169 70.62 49.4862 70.1629 49.981C69.7059 50.4757 69.3833 51.0794 69.2261 51.7343C69.0688 52.3893 69.0821 53.0736 69.2647 53.722Z" fill="#B55B52"/>
<path d="M75.5705 89.2876C75.5705 89.2876 72.2669 111.518 70.4665 119.851C68.4713 128.992 57.8272 159.152 57.8272 159.152L52.6165 158.025C52.6165 158.025 59.2934 133.433 60.9685 120.682C61.6181 115.703 62.4022 107.69 63.3952 100.994C64.3557 94.4983 65.5389 89.2922 65.5389 89.2922L75.5705 89.2876Z" fill="#263238"/>
<path d="M59.0753 157.412L58.1009 159.296L52.2452 158.025L52.7371 156.266L59.0753 157.412Z" fill="#00897B"/>
<path opacity="0.6" d="M59.0753 157.412L58.1009 159.296L52.2452 158.025L52.7371 156.266L59.0753 157.412Z" fill="white"/>
<path opacity="0.6" d="M73.4825 97.2079C69.6638 97.955 70.0675 112.195 70.5269 119.517C71.6312 114.339 73.2413 104.381 74.3409 97.31C74.0748 97.179 73.7719 97.143 73.4825 97.2079Z" fill="black"/>
<path d="M81.0875 89.2875C81.0875 89.2875 82.6419 111.04 82.3264 119.911C81.997 129.14 77.6214 159.351 77.6214 159.351H72.6938C72.6938 159.351 72.5128 129.655 72.2947 120.612C72.0534 110.729 70.861 89.2828 70.861 89.2828L81.0875 89.2875Z" fill="#263238"/>
<path d="M78.568 157.394C78.5912 157.394 78.2896 159.44 78.2896 159.44H72.2947L72.1323 157.612L78.568 157.394Z" fill="#00897B"/>
<path opacity="0.6" d="M78.568 157.394C78.5912 157.394 78.2896 159.44 78.2896 159.44H72.2947L72.1323 157.612L78.568 157.394Z" fill="white"/>
<path d="M79.1016 68.2081C79.1016 74.0452 82.2057 76.4487 82.2057 76.4487L87.268 71.521C86.0697 69.5186 84.7054 67.6203 83.1894 65.8463C80.2616 62.4916 79.1016 64.4589 79.1016 68.2081Z" fill="#263238"/>
<path opacity="0.2" d="M77.7654 57.1833C77.6622 57.4759 77.489 57.7387 77.2609 57.949C77.0329 58.1593 76.7568 58.3106 76.4569 58.3897C76.127 58.457 75.8275 58.6287 75.6027 58.8794C75.3779 59.1301 75.2398 59.4465 75.2087 59.7817C75.8096 59.5808 76.3543 59.2407 76.7987 58.7891C77.243 58.3376 77.5742 57.7873 77.7654 57.1833Z" fill="black"/>
<path d="M76.4568 48.177C77.4961 46.8639 75.8953 46.785 75.8953 46.785C76.3129 45.2213 74.4384 46.0612 74.4384 46.0612C73.3155 44.5114 72.6798 46.3999 72.6798 46.3999C71.5152 45.0868 71.2878 47.2305 71.2878 47.2305C70.1185 45.5647 69.5246 47.9682 69.5246 47.9682C68.4481 46.2375 67.7892 48.4879 67.7892 48.4879C65.5667 47.6945 66.62 50.0052 66.62 50.0052C64.7268 50.0562 66.2488 51.5271 66.2488 51.5271C63.9752 51.5271 65.9796 52.8309 65.9796 52.8309C64.1747 54.0141 66.4436 54.3343 66.4436 54.3343C64.9728 56.6543 67.5016 55.782 67.5016 55.782C66.4761 58.0649 68.7451 57.058 68.7451 57.058C68.6012 59.2573 69.868 58.6588 70.4804 58.2505C70.5964 58.7145 70.8192 59.1785 71.2275 59.2156C72.0209 59.3223 72.1555 57.8236 72.1555 57.8236C72.1555 57.8236 72.8886 58.3989 73.5057 58.0881C74.1228 57.7772 73.8908 56.993 73.8908 56.993C74.0248 57.0932 74.1876 57.1473 74.3548 57.1473C74.5221 57.1473 74.6849 57.0932 74.8188 56.993C75.0833 56.7889 75.0833 55.3133 74.7492 54.7937L75.9556 54.3297C75.9556 54.3297 76.8512 54.2044 76.4521 53.0212C76.2113 52.3411 76.1902 51.6027 76.3918 50.91C77.756 50.2697 76.6331 49.518 76.6331 49.518C78.2153 48.5018 76.4568 48.177 76.4568 48.177Z" fill="#263238"/>
<path d="M74.0116 53.8241C74.2004 54.5164 74.6132 55.1266 75.1855 55.5595C75.9418 56.1256 76.5079 55.5595 76.4522 54.7104C76.4058 53.9401 75.9511 52.7198 75.1159 52.4878C74.2807 52.2558 73.812 53.0029 74.0116 53.8241Z" fill="#B55B52"/>
</svg>
